<svg width="94" height="63" viewBox="0 0 94 63" fill="none" xmlns="http://www.w3.org/2000/svg">
<path d="M45.2949 42.8217L46.5153 41.7951C50.1423 38.744 52.7433 34.6513 53.9657 30.072C55.1881 25.4927 54.9727 20.6482 53.3489 16.1954C51.725 11.7426 48.7712 7.89682 44.8878 5.17949C41.0045 2.46215 36.3794 1.00468 31.6398 1.00468C26.9001 1.00468 22.2751 2.46215 18.3917 5.17949C14.5084 7.89682 11.5545 11.7426 9.93068 16.1954C8.30682 20.6482 8.09149 25.4927 9.31389 30.072C10.5363 34.6513 13.1373 38.744 16.7642 41.7951L17.9846 42.8217L16.5317 43.4792C10.5575 46.1828 5.41661 50.4372 1.64341 55.8003L45.2949 42.8217ZM45.2949 42.8217L46.7479 43.4792M45.2949 42.8217L46.7479 43.4792M46.7479 43.4792C52.7223 46.1829 57.8634 50.4376 61.6366 55.801L61.651 55.8214L61.6664 55.8411C61.9595 56.2166 62.1733 56.6478 62.2947 57.1084C62.4161 57.569 62.4427 58.0496 62.3728 58.5208C62.3029 58.992 62.1379 59.4441 61.888 59.8496C61.6381 60.2552 61.3084 60.6057 60.9188 60.88C60.5293 61.1542 60.0881 61.3465 59.6221 61.445C59.156 61.5436 58.6748 61.5464 58.2076 61.4534C57.7404 61.3603 57.297 61.1733 56.9042 60.9037C56.5115 60.6341 56.1777 60.2875 55.9229 59.8849L55.91 59.8645L55.8962 59.8448C53.162 55.9505 49.5304 52.7718 45.3084 50.5774C41.0863 48.383 36.398 47.2373 31.6398 47.2373C26.8815 47.2373 22.1932 48.383 17.9712 50.5774C13.7492 52.7718 10.1176 55.9505 7.38336 59.8448L7.38113 59.848C7.05971 60.3096 6.63117 60.6864 6.13221 60.946C5.63326 61.2057 5.07878 61.3405 4.51631 61.3389L4.51015 61.3389C3.78878 61.3412 3.08491 61.1168 2.49804 60.6973L2.49321 60.6939M46.7479 43.4792L2.49321 60.6939M2.49321 60.6939C1.73251 60.1569 1.21585 59.3402 1.05655 58.4228C0.897288 57.5057 1.10817 56.5629 1.64293 55.801L2.49321 60.6939ZM91.4988 60.689L91.4988 60.6891C91.8777 60.4264 92.2006 60.091 92.4487 59.7024C92.6968 59.3138 92.8652 58.8798 92.9441 58.4255C93.023 57.9712 93.0108 57.5059 92.9082 57.0564C92.8056 56.6069 92.6147 56.1823 92.3466 55.8072L92.3421 55.801C88.5689 50.4376 83.4278 46.1829 77.4534 43.4792L75.9965 42.8199L77.2228 41.7935C80.8595 38.7495 83.4697 34.6587 84.698 30.078C85.9263 25.4973 85.713 20.6493 84.0872 16.1942C82.4614 11.739 79.5021 7.89319 75.6122 5.18027C71.7223 2.46735 67.0907 1.0192 62.3482 1.03297L62.3436 1.03298C60.2331 1.02946 58.1324 1.32089 56.1025 1.89879L56.0845 1.90392L56.0845 1.90375C55.6336 2.02307 55.211 2.23088 54.8412 2.5151C54.4714 2.79931 54.1619 3.15425 53.9306 3.55925C53.6993 3.96425 53.5508 4.41122 53.4939 4.87412C53.437 5.33702 53.4728 5.80663 53.5991 6.25559C53.7255 6.70454 53.9398 7.12388 54.2298 7.48919L53.4694 8.09275L54.2298 7.48919C54.5197 7.8545 54.8795 8.15848 55.288 8.38343C55.6966 8.60839 56.1458 8.74982 56.6095 8.79949C57.0733 8.84917 57.5422 8.8061 57.9892 8.67278L58.0007 8.66934L58.0007 8.66941C59.4143 8.26617 60.8773 8.06297 62.3472 8.06573M91.4988 60.689L85.7795 60.4221L86.6007 59.8433C86.6004 59.8429 86.6001 59.8425 86.5998 59.8421C83.8601 55.9555 80.2276 52.7832 76.0075 50.5918C71.787 48.4001 67.1021 47.2535 62.3464 47.2483H62.3453C61.4127 47.2483 60.5183 46.8778 59.8589 46.2183C59.1994 45.5589 58.8289 44.6645 58.8289 43.7319C58.8289 42.7993 59.1994 41.9049 59.8589 41.2454C60.5183 40.586 61.4127 40.2155 62.3453 40.2155C66.6086 40.2155 70.6973 38.5219 73.712 35.5073C76.7266 32.4926 78.4202 28.4039 78.4202 24.1406C78.4202 19.8773 76.7266 15.7886 73.712 12.774C70.6978 9.75978 66.6098 8.06624 62.3472 8.06573M91.4988 60.689L91.4871 60.6973M91.4988 60.689L91.4871 60.6973M62.3472 8.06573L62.3453 9.07041V8.06573C62.3459 8.06573 62.3466 8.06573 62.3472 8.06573ZM77.8676 42.5639L78.2818 41.6486C78.42 41.7111 78.5578 41.7744 78.6951 41.8385C78.4253 42.0862 78.1494 42.3281 77.8676 42.5639ZM77.8676 42.5639L78.5125 43.3343C78.6312 43.235 78.7489 43.1346 78.8655 43.0332C78.5355 42.8721 78.2028 42.7156 77.8676 42.5639ZM91.4871 60.6973C90.9005 61.1166 90.1971 61.341 89.4762 61.3389L91.4871 60.6973ZM18.274 15.2099C16.5077 17.8534 15.5649 20.9613 15.5649 24.1406C15.5649 28.4039 17.2585 32.4926 20.2731 35.5073C23.2877 38.5219 27.3765 40.2155 31.6398 40.2155C34.8191 40.2155 37.927 39.2727 40.5705 37.5064C43.214 35.7401 45.2744 33.2295 46.491 30.2922C47.7077 27.3549 48.026 24.1228 47.4058 21.0046C46.7855 17.8863 45.2545 15.0221 43.0064 12.774C40.7583 10.5258 37.8941 8.99486 34.7758 8.37461C31.6576 7.75435 28.4255 8.07269 25.4882 9.28936C22.5509 10.506 20.0403 12.5664 18.274 15.2099Z" fill="#4CAF4F" stroke="#4CAF4F"/>
</svg>
