<svg width="68" height="76" viewBox="0 0 68 76" fill="none" xmlns="http://www.w3.org/2000/svg">
<path d="M65.9998 73.9998V65.9998C65.9998 61.7563 64.3141 57.6867 61.3135 54.6861C58.3129 51.6855 54.2433 49.9998 49.9998 49.9998H45.9999C44.939 49.9998 43.9216 49.5784 43.1714 48.8283C42.4213 48.0781 41.9999 47.0607 41.9999 45.9999V25.9999C41.9999 23.8782 41.157 21.8434 39.6567 20.3431C38.1564 18.8428 36.1216 17.9999 33.9999 17.9999C31.8782 17.9999 29.8433 18.8428 28.3431 20.3431C26.8428 21.8434 25.9999 23.8782 25.9999 25.9999V61.9998L16.3999 49.1998C15.6548 48.2063 14.6885 47.3998 13.5777 46.8444C12.4668 46.289 11.2419 45.9999 9.99997 45.9999H8.26397C4.80398 45.9999 1.99999 48.8038 1.99999 52.2638C1.99999 53.3998 2.30799 54.5158 2.89199 55.4878L14 73.9998M33.9999 5.99998V1.99999V5.99998ZM57.9998 29.9999H61.9998H57.9998ZM5.99998 29.9999H9.99997H5.99998ZM15.372 11.372L12.544 8.54397L15.372 11.372ZM52.6278 11.372L55.4558 8.54397L52.6278 11.372Z" fill="#4CAF4F"/>
<path d="M65.9998 73.9998V65.9998C65.9998 61.7563 64.3141 57.6867 61.3135 54.6861C58.3129 51.6855 54.2433 49.9998 49.9998 49.9998H45.9999C44.939 49.9998 43.9216 49.5784 43.1714 48.8283C42.4213 48.0781 41.9999 47.0607 41.9999 45.9999V25.9999C41.9999 23.8782 41.157 21.8434 39.6567 20.3431C38.1564 18.8428 36.1216 17.9999 33.9999 17.9999V17.9999C31.8782 17.9999 29.8433 18.8428 28.3431 20.3431C26.8428 21.8434 25.9999 23.8782 25.9999 25.9999V61.9998L16.3999 49.1998C15.6548 48.2063 14.6885 47.3999 13.5777 46.8444C12.4668 46.289 11.2419 45.9999 9.99997 45.9999H8.26397C4.80398 45.9999 1.99999 48.8038 1.99999 52.2638C1.99999 53.3998 2.30799 54.5158 2.89199 55.4878L14 73.9998M33.9999 5.99998V1.99999M57.9998 29.9999H61.9998M5.99998 29.9999H9.99997M15.372 11.372L12.544 8.54397M52.6278 11.372L55.4558 8.54397" stroke="#4CAF4F" stroke-width="2" stroke-linecap="round" stroke-linejoin="round"/>
</svg>
