<svg width="84" height="66" viewBox="0 0 84 66" fill="none" xmlns="http://www.w3.org/2000/svg">
<path d="M5 18V19H6H78H79V18V13.5C79 11.2457 78.1045 9.08365 76.5104 7.48959C74.9163 5.89553 72.7543 5 70.5 5H13.5C11.2457 5 9.08365 5.89553 7.48959 7.48959C5.89553 9.08365 5 11.2457 5 13.5V18ZM79 24V23H78H6H5V24V52.5C5 54.7543 5.89553 56.9163 7.48959 58.5104C9.08365 60.1045 11.2457 61 13.5 61H70.5C72.7543 61 74.9163 60.1045 76.5104 58.5104C78.1045 56.9163 79 54.7543 79 52.5V24ZM1 13.5C1 10.1848 2.31696 7.00537 4.66116 4.66116C7.00537 2.31696 10.1848 1 13.5 1H70.5C73.8152 1 76.9946 2.31696 79.3388 4.66117C81.683 7.00537 83 10.1848 83 13.5V52.5C83 55.8152 81.683 58.9946 79.3388 61.3388C76.9946 63.683 73.8152 65 70.5 65H13.5C10.1848 65 7.00537 63.683 4.66117 61.3388C2.31696 58.9946 1 55.8152 1 52.5V13.5ZM57 43H66C66.5304 43 67.0391 43.2107 67.4142 43.5858C67.7893 43.9609 68 44.4696 68 45C68 45.5304 67.7893 46.0391 67.4142 46.4142C67.0391 46.7893 66.5304 47 66 47H57C56.4696 47 55.9609 46.7893 55.5858 46.4142C55.2107 46.0391 55 45.5304 55 45C55 44.4696 55.2107 43.9609 55.5858 43.5858C55.9609 43.2107 56.4696 43 57 43Z" fill="#4CAF4F" stroke="#4CAF4F"/>
</svg>
