<svg width="26" height="35" viewBox="0 0 26 35" fill="none" xmlns="http://www.w3.org/2000/svg">
<path d="M15.8778 19.2887L15.8773 29.6024V29.6025V29.7224C15.8773 29.9617 15.9081 30.1938 15.9661 30.415L15.8679 32.0941L15.8627 32.1844C15.8397 32.578 15.6864 32.9222 15.4274 33.1815L18.3895 31.2412C18.2206 31.2135 18.052 31.1536 17.8839 31.0621L17.0704 30.6191V29.7224V29.6025V19.2887M15.8778 19.2887V19.2886L16.4741 19.2887L17.0704 19.2887M15.8778 19.2887C15.8778 19.6181 16.1453 19.885 16.4741 19.885C16.8035 19.885 17.0704 19.6175 17.0704 19.2887M15.8778 19.2887H16.4741H17.0704M4.33742 18.3668L4.33755 18.3669L4.33742 18.3668ZM4.33742 18.3668C3.90013 19.1287 2.84936 19.4132 2.08211 18.9724L4.33742 18.3668ZM1.39902 20.1587L1.39773 20.158C0.834365 19.8328 0.428148 19.3 0.260063 18.6757L0.259816 18.6748L0.259764 18.6746L0.258926 18.6714C0.122216 18.157 0.156792 17.6189 0.353502 17.1313V16.7318C0.00277487 17.3375 -0.0910697 18.0443 0.0903357 18.7201C0.270788 19.3955 0.704722 19.96 1.31136 20.3117L1.39902 20.1587ZM16.2723 34.0257L16.3957 34.149L16.2722 34.0257L16.2709 34.0271C15.7559 34.5411 15.065 34.8248 14.3397 34.8248C14.3397 34.8248 14.3397 34.8248 14.3397 34.8248C13.3538 34.8247 12.489 34.3008 12.009 33.5165C11.9596 33.5417 11.9097 33.5661 11.8592 33.5896L16.2723 34.0257ZM1.53711 17.4195C1.36922 17.7105 1.32575 18.042 1.41235 18.3649C1.41238 18.365 1.4124 18.3651 1.41243 18.3652L1.4125 18.3655L1.41284 18.3667C1.49862 18.6878 1.70074 18.9538 1.99397 19.1251C1.99408 19.1252 1.99418 19.1253 1.99429 19.1253L1.53711 17.4195Z" fill="#4CAF4F" stroke="#4CAF4F" stroke-width="1.33333"/>
</svg>
