<svg width="642" height="858" viewBox="0 0 642 858" fill="none" xmlns="http://www.w3.org/2000/svg">
<path d="M641.777 857.462C641.777 857.752 498.098 858 320.919 858C143.741 858 0 857.752 0 857.462C0 857.173 143.659 856.924 320.919 856.924C498.18 856.924 641.777 857.193 641.777 857.462Z" fill="#263238"/>
<path d="M501.781 604.161C469.813 581.836 462.571 540.391 463.833 503.126C464.04 496.919 463.357 490.339 466.316 484.898C469.275 479.456 476.186 475.711 481.752 478.318C486.366 480.49 488.373 485.87 490.959 490.319C494.41 496.244 499.467 501.072 505.546 504.244C509.498 506.313 514.402 507.554 518.313 505.403C523.693 502.444 524.313 495.057 524.272 488.85C524.272 477.304 524.203 465.772 524.065 454.254C523.693 448.069 524.322 441.865 525.927 435.88C527.851 430.004 532.134 424.562 537.99 422.907C543.846 421.252 551.15 424.666 552.474 430.708C552.702 433.267 552.764 435.838 552.66 438.405C552.826 440.991 554.026 443.826 556.447 444.612C558.867 445.398 561.392 443.598 563.254 441.777C569.627 435.57 573.972 427.48 578.007 419.493C582.041 411.506 585.993 403.292 591.787 396.484C597.581 389.677 605.588 384.277 614.547 383.759C623.506 383.242 632.838 388.746 635.073 397.436C637.308 406.126 632.238 415.003 626.796 422.059C618.585 432.532 608.905 441.766 598.056 449.474C595.939 450.631 594.249 452.437 593.235 454.626C591.89 458.765 595.801 462.903 599.877 464.206C604.491 465.738 609.499 465.262 614.361 465.841C619.223 466.42 624.396 468.531 626.238 473.083C628.762 479.414 623.465 486.036 618.272 490.381C607.843 499.071 596.002 505.909 583.262 510.596C578.71 512.251 573.931 513.72 570.248 516.907C566.564 520.093 564.371 525.659 566.585 530.025C568.799 534.391 574.489 535.777 579.269 534.887C584.049 533.998 588.29 531.432 592.842 529.715C601.346 526.507 612.313 527.087 617.672 534.432C619.332 536.962 620.383 539.843 620.742 542.848C621.101 545.853 620.758 548.9 619.741 551.751C617.67 557.423 614.483 562.622 610.368 567.041C596.816 583.233 579.208 595.536 559.343 602.692C539.625 609.52 521.354 611.383 501.76 604.203" fill="#4CAF4F"/>
<path d="M625.969 388.87C625.969 388.87 625.783 389.077 625.369 389.449L623.527 391.084C621.913 392.532 619.534 394.643 616.534 397.436C608.027 405.334 600.128 413.863 592.904 422.948C588.29 428.68 583.511 435.177 578.421 442.232C573.331 449.288 568.075 456.903 562.861 464.993C557.302 473.524 552.211 482.352 547.611 491.436C545.211 496.174 543.101 501.119 540.928 506.168L534.514 521.583C526.059 541 518.695 560.873 512.457 581.111C507.432 597.67 503.969 614.662 502.112 631.867C500.908 643.477 500.714 655.17 501.532 666.814C501.863 670.952 502.174 674.118 502.463 676.27C502.588 677.304 502.67 678.132 502.753 678.732V679.58C502.664 679.311 502.602 679.034 502.567 678.753C502.463 678.153 502.339 677.346 502.174 676.311C501.801 674.242 501.408 670.973 501.036 666.835C500.037 655.169 500.107 643.437 501.243 631.784C502.985 614.506 506.373 597.434 511.361 580.801C517.546 560.506 524.89 540.582 533.355 521.128L539.935 505.775C542.108 500.747 544.239 495.76 546.66 491.001C551.291 481.89 556.424 473.041 562.033 464.496C567.33 456.22 572.668 448.73 577.696 441.736C582.724 434.742 587.587 428.204 592.18 422.493C599.478 413.431 607.483 404.963 616.12 397.167C619.182 394.415 621.624 392.346 623.279 390.96L625.203 389.408C625.439 389.203 625.696 389.022 625.969 388.87Z" fill="#263238"/>
<path d="M546.929 490.96C546.637 490.108 546.436 489.227 546.329 488.332C545.998 486.615 545.625 484.194 545.191 481.049C544.301 474.842 543.39 466.338 542.418 456.923C541.446 447.509 540.349 438.984 539.438 432.839C538.963 429.776 538.549 427.314 538.259 425.597C538.033 424.718 537.915 423.814 537.907 422.907C538.264 423.736 538.521 424.604 538.673 425.493C539.128 427.19 539.645 429.632 540.225 432.715C541.404 438.922 542.563 447.364 543.535 456.799C544.508 466.234 545.335 474.511 545.977 480.946C546.287 483.842 546.556 486.305 546.763 488.27C546.924 489.157 546.979 490.06 546.929 490.96Z" fill="#263238"/>
<path d="M626.548 476.104C625.541 476.323 624.516 476.448 623.486 476.476C621.417 476.663 618.479 476.911 614.837 477.325C607.554 478.111 597.539 479.559 586.552 481.629C575.565 483.698 565.696 486.036 558.598 487.836C555.06 488.746 552.205 489.574 550.322 490.133C549.317 490.49 548.276 490.739 547.218 490.877C548.175 490.397 549.172 490.002 550.198 489.698C552.143 489.015 554.957 488.063 558.474 487.05C565.53 484.98 575.4 482.518 586.428 480.408C595.77 478.621 605.197 477.309 614.671 476.476C618.334 476.166 621.293 476.042 623.362 476.001C624.425 475.928 625.492 475.963 626.548 476.104Z" fill="#263238"/>
<path d="M512.374 579.353C512.154 579.053 511.973 578.726 511.837 578.38L510.471 575.504C509.292 573 507.698 569.297 505.795 564.765C501.946 555.661 497.042 542.915 491.828 528.763C486.614 514.61 481.814 501.864 478.172 492.657C476.393 488.187 474.924 484.525 473.827 481.794L472.668 478.835C472.508 478.494 472.396 478.132 472.337 477.759C472.558 478.059 472.739 478.386 472.875 478.732L474.241 481.608C475.399 484.111 477.013 487.815 478.917 492.346C482.765 501.45 487.669 514.196 492.883 528.349C498.098 542.502 502.898 555.247 506.54 564.455C508.319 568.924 509.788 572.587 510.864 575.318C511.34 576.497 511.733 577.387 512.043 578.277C512.204 578.618 512.315 578.98 512.374 579.353Z" fill="#263238"/>
<path d="M618.065 545.274C617.733 545.465 617.379 545.611 617.009 545.709L613.947 546.743L602.629 550.406C593.07 553.509 579.869 557.937 565.385 562.82C550.901 567.704 537.638 572.049 528.017 574.945C523.217 576.414 519.306 577.532 516.595 578.277L513.471 579.084C513.108 579.199 512.733 579.275 512.354 579.311C512.685 579.121 513.04 578.975 513.409 578.877L516.471 577.842L527.789 574.18C537.349 571.076 550.55 566.648 565.033 561.765C579.517 556.882 592.759 552.537 602.381 549.64C607.202 548.171 611.092 547.054 613.823 546.309L616.947 545.502C617.311 545.387 617.685 545.31 618.065 545.274Z" fill="#263238"/>
<path d="M574.944 43.3697L564.289 47.1769L559.716 33.2517C551.315 7.57405 524.541 -6.06141 499.939 2.60817C475.337 11.2778 462.24 39.4384 470.64 65.1161L475.213 79.0412L464.516 82.8691C460.437 84.4512 457.124 87.5444 455.267 91.5058C453.41 95.4672 453.15 99.9919 454.543 104.14L484.193 194.746C484.809 196.799 485.831 198.708 487.198 200.358C488.566 202.009 490.251 203.368 492.154 204.354C494.057 205.34 496.139 205.934 498.276 206.1C500.414 206.265 502.562 206 504.595 205.319L615.023 165.82C619.156 164.24 622.516 161.12 624.395 157.114C626.274 153.109 626.527 148.53 625.1 144.342L595.429 53.736C594.797 51.6885 593.76 49.7892 592.378 48.1514C590.997 46.5136 589.299 45.1709 587.388 44.2035C585.476 43.236 583.389 42.6635 581.251 42.5203C579.113 42.377 576.968 42.6659 574.944 43.3697ZM490.773 57.8535C488.508 51.1769 488.914 43.8828 491.908 37.4993C494.901 31.1159 500.248 26.1384 506.829 23.6097C510.079 22.4978 513.519 22.0519 516.945 22.2987C520.371 22.5454 523.712 23.4797 526.769 25.0458C529.826 26.6119 532.536 28.7777 534.738 31.414C536.939 34.0503 538.587 37.1031 539.583 40.3902L544.135 54.3153L495.325 71.7786L490.773 57.8535ZM552.846 138.259L560.419 161.392C560.558 161.856 560.513 162.355 560.294 162.787C560.074 163.218 559.697 163.549 559.24 163.709L548.625 167.496C548.203 167.613 547.751 167.562 547.366 167.354C546.98 167.145 546.69 166.796 546.556 166.378L538.921 143.349C534.711 143.12 530.672 141.61 527.344 139.021C524.016 136.433 521.558 132.889 520.299 128.865C518.5 123.546 518.828 117.736 521.215 112.653C523.603 107.569 527.864 103.607 533.107 101.595C535.696 100.71 538.436 100.356 541.165 100.553C543.893 100.75 546.554 101.494 548.989 102.742C551.424 103.989 553.582 105.714 555.336 107.813C557.09 109.912 558.404 112.343 559.198 114.961C560.53 119.049 560.64 123.436 559.515 127.585C558.391 131.734 556.08 135.465 552.867 138.321L552.846 138.259Z" fill="#4CAF4F"/>
<path d="M563.813 46.9286C563.813 47.2183 544.053 54.6464 519.472 63.4815C494.891 72.3166 474.841 79.4137 474.737 79.2067C474.634 78.9998 494.497 71.5096 519.099 62.6538C543.701 53.798 563.709 46.6596 563.813 46.9286Z" fill="#263238"/>
<path d="M587.276 50.7358C587.368 50.9154 587.444 51.1022 587.504 51.2945C587.669 51.7083 587.856 52.2463 588.104 52.9084C588.642 54.4188 589.387 56.5086 590.318 59.1157L598.263 82.2484C601.574 92.056 605.526 103.684 609.912 116.596C611.982 123.072 614.423 129.817 616.699 136.914C617.917 140.572 618.444 144.424 618.251 148.274C618.076 150.276 617.506 152.224 616.575 154.005C615.581 155.781 614.253 157.347 612.664 158.619C609.468 160.953 605.919 162.762 602.153 163.978L591.497 167.806L571.324 175.027L537.162 187.194L514.092 195.305L507.885 197.374L506.229 197.912C506.052 197.991 505.863 198.039 505.671 198.057C505.671 198.057 505.836 198.057 506.188 197.808L507.802 197.167L514.009 194.829L536.956 186.387L571.055 173.972L591.187 166.689L601.843 162.84C605.502 161.673 608.947 159.919 612.044 157.647C613.522 156.467 614.758 155.012 615.685 153.364C616.562 151.716 617.09 149.906 617.237 148.046C617.428 144.337 616.922 140.624 615.747 137.101C613.513 130.066 611.154 123.258 609.023 116.782C604.719 103.85 600.746 92.1801 597.601 82.3725C594.456 72.565 591.808 64.6816 589.987 59.1364C589.118 56.4259 588.456 54.3154 587.918 52.7842L587.421 51.1289C587.359 51.0036 587.31 50.8717 587.276 50.7358Z" fill="#263238"/>
<path d="M529.01 22.2026C529.01 22.2026 527.913 21.6646 525.886 20.837C522.995 19.7264 519.939 19.1109 516.844 19.0162C512.256 18.8589 507.691 19.721 503.477 21.5405C498.353 23.8061 493.971 27.4707 490.835 32.1137C487.678 36.7433 485.984 42.2145 485.973 47.8182C486.016 52.4111 486.712 56.9744 488.042 61.3709C489.118 65.1367 490.235 68.1369 490.98 70.2267C491.419 71.2882 491.779 72.3809 492.056 73.4959C491.468 72.5034 490.976 71.4573 490.587 70.3716C489.738 68.3024 488.518 65.3643 487.318 61.5778C485.844 57.1352 485.042 52.4976 484.938 47.8182C484.883 42.0028 486.616 36.311 489.904 31.5136C493.149 26.7011 497.71 22.9232 503.043 20.6301C507.388 18.8006 512.096 17.9936 516.802 18.2713C519.964 18.4324 523.071 19.1686 525.969 20.4438C526.743 20.8013 527.49 21.2163 528.203 21.6853C528.498 21.8146 528.77 21.9892 529.01 22.2026Z" fill="#263238"/>
<path d="M529.962 103.167C530.292 102.967 530.638 102.794 530.996 102.65C532.032 102.182 533.105 101.802 534.204 101.512C535.948 100.997 537.747 100.691 539.563 100.601C542.033 100.469 544.504 100.842 546.825 101.698C552.122 103.56 556.985 108.961 559.385 116.182C560.536 120.057 560.536 124.183 559.385 128.059C558.108 132.265 555.821 136.094 552.722 139.211L552.846 138.652C555.598 146.205 558.598 154.398 561.702 162.944L561.888 163.461L561.371 163.647L556.633 165.22L546.287 168.675L545.77 168.841L545.604 168.323C542.77 159.757 539.666 151.771 537.328 143.929L537.783 144.28C533.738 143.944 529.881 142.426 526.693 139.915C523.808 137.693 521.442 134.868 519.761 131.638C518.244 128.774 517.489 125.567 517.568 122.327C517.664 119.015 518.491 115.766 519.989 112.811C521.488 109.856 523.622 107.27 526.238 105.236C527.314 104.362 528.522 103.664 529.817 103.167C528.648 103.861 527.516 104.613 526.424 105.422C523.55 107.853 521.349 110.981 520.03 114.506C518.898 117.164 518.369 120.04 518.48 122.927C518.59 125.814 519.339 128.64 520.672 131.204C522.325 134.311 524.633 137.022 527.438 139.149C530.479 141.536 534.157 142.975 538.011 143.287H538.362L538.466 143.598C540.742 151.295 543.866 159.344 546.742 167.951L546.06 167.62L556.405 164.165L561.123 162.571L560.792 163.275C557.709 154.729 554.729 146.515 551.998 138.963V138.652L552.246 138.404C555.254 135.416 557.497 131.747 558.785 127.707C559.882 124 559.882 120.054 558.785 116.347C556.529 109.395 551.874 104.119 546.825 102.257C544.59 101.395 542.205 100.994 539.811 101.077C538.024 101.118 536.247 101.361 534.514 101.802C531.431 102.567 529.983 103.271 529.962 103.167Z" fill="#263238"/>
<path d="M466.006 700.603L259.322 699.651C247.386 699.585 235.964 694.785 227.565 686.304C219.166 677.823 214.476 666.356 214.526 654.42L216.719 136.293C216.743 130.38 217.933 124.529 220.22 119.076C222.506 113.623 225.846 108.673 230.046 104.511C234.247 100.349 239.227 97.0554 244.701 94.8188C250.175 92.5822 256.036 91.4465 261.95 91.4764L468.613 92.4282C480.549 92.4884 491.972 97.2835 500.376 105.76C508.779 114.237 513.474 125.702 513.43 137.638L511.236 655.744C511.212 661.66 510.023 667.512 507.737 672.968C505.45 678.424 502.112 683.376 497.912 687.541C493.712 691.707 488.732 695.004 483.258 697.245C477.783 699.486 471.921 700.627 466.006 700.603Z" fill="#455A64"/>
<path d="M468.302 110.243H428.244C426.937 110.268 425.648 110.549 424.45 111.072C423.251 111.594 422.168 112.348 421.261 113.289C420.354 114.231 419.641 115.342 419.164 116.559C418.687 117.776 418.453 119.075 418.478 120.382V127.645C418.503 128.951 418.27 130.249 417.792 131.464C417.314 132.68 416.601 133.79 415.694 134.73C414.787 135.669 413.703 136.421 412.505 136.942C411.307 137.462 410.018 137.741 408.712 137.762L330.624 137.411C327.982 137.34 325.476 136.224 323.657 134.308C321.837 132.391 320.853 129.831 320.919 127.189V119.927C320.986 117.288 320.005 114.731 318.19 112.815C316.375 110.899 313.874 109.781 311.236 109.705H297.145L262.074 109.54C253.732 109.49 245.71 112.748 239.765 118.6C233.82 124.452 230.436 132.421 230.354 140.763L228.285 646.495C228.266 650.634 229.062 654.735 230.628 658.566C232.195 662.396 234.5 665.881 237.413 668.821C240.325 671.76 243.789 674.097 247.605 675.699C251.421 677.3 255.515 678.134 259.653 678.153L465.902 679.105C470.043 679.124 474.147 678.327 477.981 676.76C481.814 675.193 485.301 672.886 488.242 669.971C491.184 667.056 493.522 663.591 495.125 659.772C496.727 655.954 497.561 651.857 497.58 647.716L499.649 141.983C499.699 133.618 496.425 125.576 490.547 119.624C484.669 113.672 476.667 110.298 468.302 110.243Z" fill="white"/>
<path d="M440.556 611.631L287.193 610.969C285.6 610.969 284.317 609.231 284.338 607.12L284.503 567C284.503 564.931 285.807 563.152 287.4 563.152L440.762 563.855C441.645 564.008 442.435 564.495 442.967 565.216C443.499 565.937 443.732 566.836 443.618 567.724L443.473 607.803C443.473 609.934 442.149 611.651 440.556 611.631Z" fill="#4CAF4F"/>
<path d="M333.821 591.185C332.975 591.185 332.161 591.05 331.379 590.778C330.609 590.496 330.012 590.138 329.589 589.704L330.061 588.776C330.462 589.167 330.999 589.498 331.672 589.769C332.356 590.029 333.072 590.16 333.821 590.16C334.537 590.16 335.118 590.073 335.563 589.899C336.019 589.715 336.35 589.471 336.556 589.167C336.773 588.863 336.881 588.526 336.881 588.157C336.881 587.712 336.751 587.354 336.491 587.083C336.241 586.812 335.91 586.6 335.498 586.448C335.085 586.285 334.63 586.144 334.13 586.025C333.631 585.905 333.132 585.781 332.633 585.65C332.133 585.509 331.672 585.325 331.249 585.097C330.837 584.869 330.5 584.571 330.24 584.202C329.99 583.822 329.865 583.328 329.865 582.72C329.865 582.156 330.012 581.64 330.305 581.174C330.609 580.696 331.07 580.316 331.689 580.034C332.307 579.741 333.099 579.595 334.065 579.595C334.706 579.595 335.34 579.687 335.97 579.871C336.599 580.045 337.142 580.289 337.598 580.604L337.191 581.564C336.702 581.239 336.181 581 335.628 580.848C335.085 580.696 334.559 580.62 334.049 580.62C333.365 580.62 332.801 580.713 332.356 580.897C331.911 581.082 331.58 581.331 331.363 581.646C331.157 581.95 331.054 582.297 331.054 582.688C331.054 583.133 331.178 583.491 331.428 583.762C331.689 584.033 332.025 584.245 332.437 584.397C332.861 584.549 333.322 584.685 333.821 584.804C334.32 584.923 334.814 585.054 335.302 585.195C335.802 585.336 336.257 585.52 336.67 585.748C337.093 585.965 337.429 586.258 337.679 586.627C337.94 586.996 338.07 587.479 338.07 588.076C338.07 588.629 337.918 589.145 337.614 589.622C337.31 590.089 336.843 590.469 336.214 590.762C335.595 591.044 334.798 591.185 333.821 591.185ZM340.694 591.088V579.692H341.899V591.088H340.694ZM345.607 591.088V579.692H346.6L354.462 589.59H353.941V579.692H355.13V591.088H354.137L346.29 581.19H346.811V591.088H345.607ZM363.847 591.185C362.979 591.185 362.175 591.044 361.437 590.762C360.71 590.469 360.075 590.062 359.533 589.541C359.001 589.02 358.583 588.407 358.279 587.702C357.986 586.996 357.84 586.226 357.84 585.39C357.84 584.554 357.986 583.784 358.279 583.078C358.583 582.373 359.007 581.76 359.549 581.239C360.092 580.718 360.727 580.316 361.454 580.034C362.192 579.741 362.995 579.595 363.863 579.595C364.731 579.595 365.523 579.73 366.24 580.002C366.967 580.273 367.585 580.685 368.095 581.239L367.347 582.004C366.869 581.526 366.343 581.185 365.768 580.978C365.192 580.772 364.574 580.669 363.912 580.669C363.206 580.669 362.555 580.788 361.958 581.027C361.372 581.255 360.857 581.586 360.412 582.02C359.978 582.443 359.636 582.943 359.386 583.518C359.148 584.082 359.028 584.706 359.028 585.39C359.028 586.063 359.148 586.687 359.386 587.262C359.636 587.837 359.978 588.342 360.412 588.776C360.857 589.199 361.372 589.53 361.958 589.769C362.555 589.997 363.201 590.111 363.896 590.111C364.547 590.111 365.16 590.013 365.735 589.818C366.321 589.622 366.858 589.291 367.347 588.825L368.03 589.736C367.488 590.214 366.853 590.577 366.126 590.827C365.399 591.066 364.639 591.185 363.847 591.185ZM366.875 589.59V585.39H368.03V589.736L366.875 589.59ZM380.291 591.185C378.837 591.185 377.692 590.767 376.856 589.932C376.02 589.096 375.603 587.859 375.603 586.22V579.692H376.807V586.171C376.807 587.517 377.111 588.51 377.719 589.15C378.327 589.791 379.184 590.111 380.291 590.111C381.409 590.111 382.271 589.791 382.879 589.15C383.487 588.51 383.791 587.517 383.791 586.171V579.692H384.963V586.22C384.963 587.859 384.545 589.096 383.709 589.932C382.885 590.767 381.745 591.185 380.291 591.185ZM388.593 591.088V579.692H392.858C393.824 579.692 394.654 579.85 395.349 580.164C396.043 580.468 396.575 580.913 396.944 581.499C397.324 582.075 397.514 582.774 397.514 583.599C397.514 584.402 397.324 585.097 396.944 585.683C396.575 586.258 396.043 586.703 395.349 587.018C394.654 587.333 393.824 587.49 392.858 587.49H389.26L389.798 586.92V591.088H388.593ZM389.798 587.018L389.26 586.432H392.825C393.965 586.432 394.828 586.188 395.414 585.699C396.011 585.2 396.309 584.5 396.309 583.599C396.309 582.688 396.011 581.982 395.414 581.483C394.828 580.984 393.965 580.734 392.825 580.734H389.26L389.798 580.164V587.018Z" fill="#E8E8E3"/>
<path d="M317.783 258.909L264.566 258.668L264.521 268.434L317.739 268.676L317.783 258.909Z" fill="#4CAF4F"/>
<path opacity="0.1" d="M317.783 258.909L264.566 258.668L264.521 268.434L317.739 268.676L317.783 258.909Z" fill="black"/>
<path d="M473.785 318.872C474.203 318.83 474.614 318.732 475.006 318.582C475.579 318.358 476.077 317.978 476.443 317.484C476.809 316.989 477.028 316.402 477.075 315.789C477.075 312.499 477.075 307.699 477.075 301.533C477.075 298.45 477.075 294.994 477.075 291.187C477.075 290.256 477.075 289.284 477.075 288.311C477.21 287.368 477.005 286.407 476.496 285.601C476.211 285.214 475.841 284.899 475.413 284.68C474.986 284.461 474.514 284.344 474.034 284.339H470.806H440.907L267.847 283.697C267.404 283.69 266.965 283.789 266.569 283.987C266.173 284.185 265.83 284.476 265.571 284.835C265.071 285.644 264.88 286.607 265.033 287.546C265.033 289.615 265.033 291.684 265.033 293.753C265.033 297.891 265.033 302.029 265.033 306.168C265.033 308.237 265.033 310.306 265.033 312.375C264.947 313.339 264.947 314.308 265.033 315.272C265.141 315.685 265.343 316.068 265.623 316.39C265.903 316.713 266.253 316.968 266.647 317.134C267.054 317.296 267.491 317.374 267.929 317.362H278.461L324.416 317.61L402.215 318.086L454.667 318.5L468.923 318.665H472.627C473.475 318.665 473.889 318.665 473.889 318.665H472.627H468.923H454.667H402.215L324.416 318.417L278.461 318.231H267.929C267.35 318.254 266.772 318.155 266.233 317.941C265.688 317.708 265.203 317.355 264.816 316.906C264.429 316.458 264.149 315.927 263.998 315.355C263.878 314.811 263.837 314.254 263.874 313.699V312.168C263.874 310.099 263.874 308.03 263.874 305.961C263.874 301.823 263.874 297.684 263.874 293.546C263.874 291.477 263.874 289.408 263.874 287.339C263.835 286.788 263.835 286.235 263.874 285.683C263.952 285.075 264.187 284.497 264.557 284.007C264.914 283.508 265.386 283.102 265.934 282.825C266.481 282.547 267.088 282.407 267.702 282.414L440.762 283.366L470.661 283.573H473.889C474.458 283.573 475.018 283.711 475.522 283.974C476.026 284.237 476.46 284.617 476.786 285.083C477.369 285.983 477.604 287.064 477.448 288.125C477.448 289.098 477.448 290.07 477.448 291.001C477.448 294.767 477.448 298.222 477.448 301.347C477.448 307.554 477.303 312.313 477.262 315.624C477.211 316.26 476.98 316.869 476.595 317.378C476.21 317.888 475.688 318.277 475.089 318.5C474.697 318.742 474.246 318.871 473.785 318.872Z" fill="#E0E0E0"/>
<path d="M377.882 294.084H280.551V303.209H377.882V294.084Z" fill="#4CAF4F"/>
<path opacity="0.2" d="M377.882 294.084H280.551V303.209H377.882V294.084Z" fill="white"/>
<path d="M317.42 348.003L264.203 347.761L264.159 357.527L317.376 357.769L317.42 348.003Z" fill="#4CAF4F"/>
<path opacity="0.1" d="M317.42 348.003L264.203 347.761L264.159 357.527L317.376 357.769L317.42 348.003Z" fill="black"/>
<path d="M472.441 407.968C472.859 407.917 473.273 407.841 473.682 407.74C474.26 407.556 474.792 407.251 475.241 406.844C475.691 406.437 476.048 405.938 476.289 405.382C476.615 404.546 476.742 403.647 476.662 402.754C476.662 401.761 476.662 400.685 476.662 399.485C476.662 397.084 476.662 394.353 476.662 391.208V378.069C476.76 377.118 476.55 376.16 476.062 375.338C475.551 374.495 474.748 373.869 473.806 373.579C472.776 373.395 471.726 373.34 470.682 373.414H440.907L268.447 372.772C267.519 372.775 266.624 373.113 265.927 373.726C265.231 374.339 264.781 375.184 264.66 376.104C264.66 378.069 264.66 380.242 264.66 382.311C264.66 386.449 264.66 390.587 264.66 394.726C264.66 396.795 264.66 398.864 264.66 400.933C264.583 401.9 264.625 402.873 264.784 403.83C265.043 404.669 265.574 405.397 266.295 405.899C267.059 406.384 267.957 406.616 268.861 406.561H271.737H277.716L323.506 406.789L401.035 407.264L453.301 407.678L467.516 407.844H453.301H401.035L323.464 407.761L277.675 407.596H268.674C267.555 407.662 266.445 407.364 265.509 406.747C264.567 406.095 263.88 405.137 263.564 404.037C263.378 402.985 263.323 401.915 263.398 400.85C263.398 398.781 263.398 396.712 263.398 394.643C263.398 390.505 263.398 386.366 263.398 382.228C263.398 380.159 263.398 378.09 263.398 376.021C263.549 374.838 264.126 373.75 265.021 372.962C265.916 372.173 267.068 371.738 268.261 371.738L440.721 372.69L470.496 372.917C471.604 372.849 472.717 372.926 473.806 373.145C474.881 373.496 475.788 374.233 476.351 375.214C476.887 376.125 477.118 377.183 477.013 378.235C477.013 379.207 477.013 380.159 477.013 381.111C477.013 384.856 477.013 388.291 477.013 391.456C477.013 394.622 477.013 397.291 477.013 399.733C477.013 400.912 477.013 402.009 477.013 403.023C477.089 403.948 476.939 404.878 476.579 405.733C476.31 406.304 475.922 406.81 475.44 407.218C474.958 407.625 474.393 407.923 473.786 408.092C473.333 408.129 472.878 408.087 472.441 407.968Z" fill="#E0E0E0"/>
<path d="M317.019 440.965L263.802 440.724L263.758 450.49L316.975 450.732L317.019 440.965Z" fill="#4CAF4F"/>
<path opacity="0.1" d="M317.019 440.965L263.802 440.724L263.758 450.49L316.975 450.732L317.019 440.965Z" fill="black"/>
<path d="M472.027 500.892C472.445 500.843 472.86 500.767 473.268 500.664C473.844 500.481 474.374 500.178 474.823 499.775C475.272 499.372 475.631 498.878 475.875 498.326C476.2 497.491 476.327 496.591 476.248 495.698C476.248 494.685 476.248 493.629 476.248 492.409C476.248 490.029 476.248 487.277 476.248 484.132V470.993C476.347 470.042 476.136 469.084 475.648 468.262C475.125 467.434 474.326 466.818 473.392 466.524C472.363 466.333 471.313 466.27 470.268 466.338H440.494L268.033 465.696C267.105 465.699 266.21 466.038 265.514 466.65C264.817 467.263 264.367 468.108 264.246 469.028C264.246 471.097 264.246 473.166 264.246 475.235C264.246 479.373 264.246 483.511 264.246 487.65C264.246 489.719 264.246 491.788 264.246 493.857C264.169 494.817 264.211 495.783 264.371 496.733C264.618 497.577 265.152 498.309 265.881 498.802C266.641 499.298 267.542 499.531 268.447 499.464H277.447L323.237 499.713L400.767 500.188L453.032 500.602L467.247 500.768H453.032H400.767L323.237 500.54L277.447 500.354H268.447C267.327 500.43 266.213 500.131 265.281 499.506C264.34 498.853 263.652 497.896 263.336 496.795C263.151 495.744 263.095 494.674 263.171 493.609C263.171 491.54 263.171 489.47 263.171 487.401C263.171 483.263 263.171 479.125 263.171 474.987C263.171 472.918 263.171 470.848 263.171 468.676C263.317 467.494 263.89 466.407 264.781 465.618C265.673 464.83 266.822 464.394 268.012 464.393L440.473 465.345L470.247 465.572C471.356 465.504 472.469 465.581 473.558 465.8C474.633 466.151 475.54 466.888 476.103 467.869C476.638 468.78 476.87 469.838 476.765 470.89C476.765 471.862 476.765 472.835 476.765 473.766C476.765 477.511 476.765 480.946 476.765 484.111C476.765 487.277 476.765 489.946 476.765 492.388C476.765 493.567 476.765 494.664 476.765 495.678C476.844 496.603 476.695 497.534 476.331 498.388C476.062 498.959 475.673 499.465 475.191 499.873C474.709 500.28 474.145 500.578 473.537 500.747C473.052 500.913 472.535 500.963 472.027 500.892Z" fill="#E0E0E0"/>
<path d="M375.804 385.76L278.474 385.318L278.433 394.443L375.763 394.885L375.804 385.76Z" fill="#4CAF4F"/>
<path opacity="0.2" d="M375.804 385.76L278.474 385.318L278.433 394.443L375.763 394.885L375.804 385.76Z" fill="white"/>
<path d="M287.276 484.008C287.215 484.84 286.911 485.636 286.401 486.297C285.892 486.958 285.2 487.455 284.411 487.727C283.621 487.998 282.77 488.032 281.962 487.824C281.154 487.616 280.424 487.175 279.864 486.556C279.304 485.937 278.938 485.168 278.812 484.343C278.685 483.518 278.803 482.674 279.152 481.916C279.5 481.158 280.064 480.518 280.772 480.077C281.481 479.636 282.303 479.413 283.137 479.435C284.29 479.499 285.371 480.016 286.146 480.872C286.92 481.728 287.326 482.855 287.276 484.008Z" fill="#4CAF4F"/>
<path d="M300.456 484.07C300.497 484.653 300.417 485.239 300.222 485.79C300.026 486.341 299.72 486.846 299.321 487.274C298.922 487.702 298.44 488.043 297.903 488.276C297.367 488.509 296.789 488.629 296.204 488.629C295.619 488.629 295.041 488.509 294.504 488.276C293.968 488.043 293.486 487.702 293.087 487.274C292.688 486.846 292.381 486.341 292.186 485.79C291.991 485.239 291.911 484.653 291.952 484.07C291.911 483.487 291.991 482.901 292.186 482.35C292.381 481.799 292.688 481.294 293.087 480.866C293.486 480.438 293.968 480.097 294.504 479.864C295.041 479.631 295.619 479.511 296.204 479.511C296.789 479.511 297.367 479.631 297.903 479.864C298.44 480.097 298.922 480.438 299.321 480.866C299.72 481.294 300.026 481.799 300.222 482.35C300.417 482.901 300.497 483.487 300.456 484.07Z" fill="#4CAF4F"/>
<path d="M313.657 484.132C313.596 484.964 313.292 485.76 312.782 486.421C312.273 487.083 311.581 487.58 310.792 487.851C310.003 488.122 309.151 488.156 308.343 487.948C307.535 487.74 306.806 487.299 306.246 486.68C305.686 486.061 305.32 485.292 305.193 484.467C305.066 483.642 305.185 482.798 305.533 482.04C305.882 481.282 306.445 480.643 307.154 480.202C307.862 479.761 308.684 479.537 309.519 479.559C310.669 479.629 311.747 480.146 312.521 481.001C313.294 481.856 313.702 482.98 313.657 484.132Z" fill="#4CAF4F"/>
<path d="M326.837 484.194C326.776 485.026 326.472 485.822 325.963 486.484C325.453 487.145 324.761 487.642 323.972 487.913C323.183 488.184 322.331 488.218 321.523 488.01C320.715 487.802 319.986 487.361 319.426 486.742C318.866 486.124 318.5 485.354 318.373 484.529C318.247 483.704 318.365 482.86 318.713 482.102C319.062 481.344 319.625 480.705 320.334 480.264C321.042 479.823 321.865 479.599 322.699 479.621C323.85 479.691 324.927 480.208 325.701 481.063C326.475 481.918 326.883 483.042 326.837 484.194Z" fill="#4CAF4F"/>
<path d="M340.017 484.236C339.96 485.069 339.66 485.867 339.152 486.531C338.645 487.195 337.954 487.696 337.165 487.97C336.376 488.245 335.524 488.281 334.714 488.075C333.904 487.869 333.173 487.43 332.611 486.812C332.049 486.193 331.681 485.424 331.553 484.598C331.425 483.772 331.542 482.927 331.89 482.168C332.239 481.408 332.802 480.768 333.511 480.326C334.221 479.885 335.044 479.661 335.879 479.683C337.026 479.753 338.101 480.268 338.874 481.118C339.647 481.968 340.057 483.087 340.017 484.236Z" fill="#4CAF4F"/>
<path d="M353.218 484.298C353.162 485.127 352.864 485.921 352.362 486.584C351.86 487.246 351.175 487.747 350.392 488.025C349.608 488.303 348.761 488.346 347.953 488.148C347.146 487.951 346.414 487.522 345.847 486.914C345.281 486.306 344.904 485.545 344.764 484.726C344.624 483.907 344.727 483.064 345.059 482.303C345.392 481.541 345.94 480.893 346.636 480.439C347.332 479.984 348.146 479.743 348.977 479.745C350.142 479.789 351.243 480.292 352.038 481.145C352.833 481.998 353.257 483.132 353.218 484.298Z" fill="#4CAF4F"/>
<path d="M366.399 484.36C366.439 484.943 366.36 485.528 366.164 486.08C365.969 486.631 365.662 487.136 365.264 487.564C364.865 487.991 364.382 488.332 363.846 488.565C363.31 488.798 362.731 488.919 362.147 488.919C361.562 488.919 360.983 488.798 360.447 488.565C359.911 488.332 359.428 487.991 359.029 487.564C358.631 487.136 358.324 486.631 358.129 486.08C357.934 485.528 357.854 484.943 357.895 484.36C357.854 483.776 357.934 483.191 358.129 482.64C358.324 482.088 358.631 481.583 359.029 481.156C359.428 480.728 359.911 480.387 360.447 480.154C360.983 479.921 361.562 479.8 362.147 479.8C362.731 479.8 363.31 479.921 363.846 480.154C364.382 480.387 364.865 480.728 365.264 481.156C365.662 481.583 365.969 482.088 366.164 482.64C366.36 483.191 366.439 483.776 366.399 484.36Z" fill="#4CAF4F"/>
<path d="M379.579 484.422C379.522 485.251 379.225 486.046 378.722 486.708C378.22 487.37 377.535 487.871 376.752 488.149C375.969 488.427 375.121 488.47 374.314 488.272C373.507 488.075 372.775 487.646 372.208 487.038C371.641 486.43 371.265 485.669 371.125 484.85C370.985 484.031 371.087 483.188 371.42 482.427C371.752 481.665 372.3 481.017 372.996 480.563C373.692 480.108 374.506 479.868 375.337 479.87C376.503 479.913 377.603 480.416 378.398 481.269C379.193 482.123 379.618 483.256 379.579 484.422Z" fill="#4CAF4F"/>
<path d="M392.759 484.484C392.702 485.317 392.401 486.116 391.894 486.78C391.387 487.444 390.696 487.944 389.907 488.218C389.118 488.493 388.265 488.529 387.456 488.323C386.646 488.117 385.915 487.678 385.353 487.06C384.791 486.442 384.423 485.672 384.295 484.846C384.167 484.021 384.284 483.176 384.632 482.416C384.98 481.657 385.544 481.016 386.253 480.575C386.962 480.133 387.786 479.909 388.621 479.932C389.768 480.001 390.843 480.516 391.616 481.366C392.389 482.217 392.799 483.335 392.759 484.484Z" fill="#4CAF4F"/>
<g opacity="0.2">
<path d="M287.276 484.008C287.215 484.84 286.911 485.636 286.401 486.297C285.892 486.958 285.2 487.455 284.411 487.727C283.621 487.998 282.77 488.032 281.962 487.824C281.154 487.616 280.424 487.175 279.864 486.556C279.304 485.937 278.938 485.168 278.812 484.343C278.685 483.518 278.803 482.674 279.152 481.916C279.5 481.158 280.064 480.518 280.772 480.077C281.481 479.636 282.303 479.413 283.137 479.435C284.29 479.499 285.371 480.016 286.146 480.872C286.92 481.728 287.326 482.855 287.276 484.008Z" fill="white"/>
<path d="M300.456 484.07C300.497 484.653 300.417 485.239 300.222 485.79C300.026 486.341 299.72 486.846 299.321 487.274C298.922 487.702 298.44 488.043 297.903 488.276C297.367 488.509 296.789 488.629 296.204 488.629C295.619 488.629 295.041 488.509 294.504 488.276C293.968 488.043 293.486 487.702 293.087 487.274C292.688 486.846 292.381 486.341 292.186 485.79C291.991 485.239 291.911 484.653 291.952 484.07C291.911 483.487 291.991 482.901 292.186 482.35C292.381 481.799 292.688 481.294 293.087 480.866C293.486 480.438 293.968 480.097 294.504 479.864C295.041 479.631 295.619 479.511 296.204 479.511C296.789 479.511 297.367 479.631 297.903 479.864C298.44 480.097 298.922 480.438 299.321 480.866C299.72 481.294 300.026 481.799 300.222 482.35C300.417 482.901 300.497 483.487 300.456 484.07Z" fill="white"/>
<path d="M313.657 484.132C313.596 484.964 313.292 485.76 312.782 486.421C312.273 487.083 311.581 487.58 310.792 487.851C310.003 488.122 309.151 488.156 308.343 487.948C307.535 487.74 306.805 487.299 306.245 486.68C305.686 486.061 305.32 485.292 305.193 484.467C305.066 483.642 305.184 482.798 305.533 482.04C305.882 481.282 306.445 480.643 307.154 480.202C307.862 479.761 308.684 479.537 309.519 479.559C310.669 479.629 311.747 480.146 312.521 481.001C313.294 481.856 313.702 482.98 313.657 484.132Z" fill="white"/>
<path d="M326.837 484.194C326.776 485.026 326.472 485.822 325.963 486.484C325.453 487.145 324.761 487.642 323.972 487.913C323.183 488.184 322.331 488.218 321.523 488.01C320.715 487.802 319.986 487.361 319.426 486.742C318.866 486.124 318.5 485.354 318.373 484.529C318.246 483.704 318.365 482.86 318.713 482.102C319.062 481.344 319.625 480.705 320.334 480.264C321.042 479.823 321.865 479.599 322.699 479.621C323.85 479.691 324.927 480.208 325.701 481.063C326.475 481.918 326.882 483.042 326.837 484.194Z" fill="white"/>
<path d="M340.017 484.236C339.96 485.069 339.659 485.867 339.152 486.531C338.645 487.195 337.954 487.696 337.165 487.97C336.376 488.245 335.524 488.281 334.714 488.075C333.904 487.869 333.173 487.43 332.611 486.812C332.049 486.193 331.681 485.424 331.553 484.598C331.425 483.772 331.542 482.927 331.89 482.168C332.239 481.408 332.802 480.768 333.511 480.326C334.221 479.885 335.044 479.661 335.879 479.683C337.026 479.753 338.101 480.268 338.874 481.118C339.647 481.968 340.057 483.087 340.017 484.236Z" fill="white"/>
<path d="M353.218 484.298C353.162 485.127 352.864 485.921 352.362 486.584C351.86 487.246 351.175 487.747 350.391 488.025C349.608 488.303 348.761 488.346 347.953 488.148C347.146 487.951 346.414 487.522 345.847 486.914C345.281 486.306 344.904 485.545 344.764 484.726C344.624 483.907 344.727 483.064 345.059 482.303C345.392 481.541 345.94 480.893 346.636 480.439C347.332 479.984 348.145 479.743 348.977 479.745C350.142 479.789 351.243 480.292 352.038 481.145C352.833 481.998 353.257 483.132 353.218 484.298Z" fill="white"/>
<path d="M366.398 484.36C366.439 484.943 366.359 485.528 366.164 486.08C365.969 486.631 365.662 487.136 365.264 487.564C364.865 487.991 364.382 488.332 363.846 488.565C363.31 488.798 362.731 488.919 362.146 488.919C361.562 488.919 360.983 488.798 360.447 488.565C359.911 488.332 359.428 487.991 359.029 487.564C358.631 487.136 358.324 486.631 358.129 486.08C357.933 485.528 357.854 484.943 357.894 484.36C357.854 483.776 357.933 483.191 358.129 482.64C358.324 482.088 358.631 481.583 359.029 481.156C359.428 480.728 359.911 480.387 360.447 480.154C360.983 479.921 361.562 479.8 362.146 479.8C362.731 479.8 363.31 479.921 363.846 480.154C364.382 480.387 364.865 480.728 365.264 481.156C365.662 481.583 365.969 482.088 366.164 482.64C366.359 483.191 366.439 483.776 366.398 484.36Z" fill="white"/>
<path d="M379.579 484.422C379.522 485.251 379.225 486.046 378.722 486.708C378.22 487.37 377.535 487.871 376.752 488.149C375.969 488.427 375.121 488.47 374.314 488.272C373.506 488.075 372.774 487.646 372.208 487.038C371.641 486.43 371.265 485.669 371.125 484.85C370.985 484.031 371.087 483.188 371.42 482.427C371.752 481.665 372.3 481.017 372.996 480.563C373.692 480.108 374.506 479.868 375.337 479.87C376.503 479.913 377.603 480.416 378.398 481.269C379.193 482.123 379.618 483.256 379.579 484.422Z" fill="white"/>
<path d="M392.759 484.484C392.702 485.317 392.401 486.116 391.894 486.78C391.387 487.444 390.696 487.944 389.907 488.218C389.118 488.493 388.265 488.529 387.456 488.323C386.646 488.117 385.915 487.678 385.353 487.06C384.791 486.442 384.423 485.672 384.295 484.846C384.167 484.021 384.284 483.176 384.632 482.416C384.98 481.657 385.544 481.016 386.253 480.575C386.962 480.133 387.786 479.909 388.621 479.932C389.768 480.001 390.842 480.516 391.616 481.366C392.389 482.217 392.799 483.335 392.759 484.484Z" fill="white"/>
</g>
<path d="M374.034 185.787C375.471 185.154 376.69 184.112 377.54 182.791C378.39 181.471 378.833 179.929 378.813 178.359C378.867 177.338 378.712 176.317 378.358 175.357C378.004 174.398 377.459 173.521 376.755 172.78C376.052 172.038 375.204 171.448 374.265 171.044C373.326 170.641 372.314 170.432 371.292 170.432C370.27 170.432 369.258 170.641 368.319 171.044C367.38 171.448 366.532 172.038 365.829 172.78C365.125 173.521 364.58 174.398 364.226 175.357C363.872 176.317 363.717 177.338 363.771 178.359C363.739 179.945 364.178 181.505 365.033 182.841C365.887 184.178 367.118 185.232 368.571 185.869C356.984 187.608 357.501 200.188 357.501 200.188L384.896 200.312C384.896 200.312 385.538 187.504 374.034 185.787Z" fill="#4CAF4F"/>
<path opacity="0.1" d="M374.034 185.787C375.471 185.154 376.69 184.112 377.54 182.791C378.39 181.471 378.833 179.929 378.813 178.359C378.867 177.338 378.712 176.317 378.358 175.357C378.004 174.398 377.459 173.521 376.755 172.78C376.052 172.038 375.204 171.448 374.265 171.044C373.326 170.641 372.314 170.432 371.292 170.432C370.27 170.432 369.258 170.641 368.319 171.044C367.38 171.448 366.532 172.038 365.829 172.78C365.125 173.521 364.58 174.398 364.226 175.357C363.872 176.317 363.717 177.338 363.771 178.359C363.739 179.945 364.178 181.505 365.033 182.841C365.887 184.178 367.118 185.232 368.571 185.869C356.984 187.608 357.501 200.188 357.501 200.188L384.896 200.312C384.896 200.312 385.538 187.504 374.034 185.787Z" fill="black"/>
<path d="M418.549 208.426L320.909 207.983L320.856 219.652L418.497 220.095L418.549 208.426Z" fill="#4CAF4F"/>
<path opacity="0.2" d="M418.549 208.426L320.909 207.983L320.856 219.652L418.497 220.095L418.549 208.426Z" fill="white"/>
<path d="M59.5905 268.903H58.618L55.804 269.11C54.2811 269.201 52.7668 269.402 51.2726 269.71C50.3048 269.846 49.3448 270.032 48.3965 270.269L45.1894 271.158C39.7307 272.833 34.5805 275.384 29.9401 278.71C23.809 283.161 18.6895 288.858 14.9183 295.429C12.7017 299.216 10.9378 303.251 9.66275 307.45C8.32298 312.014 7.55159 316.726 7.36605 321.479C7.24273 323.976 7.2842 326.478 7.49019 328.969C7.49019 330.231 7.84194 331.494 8.00747 332.776C8.1467 334.07 8.38886 335.35 8.73165 336.604C10.5922 344.907 14.3674 352.66 19.7561 359.245C25.1448 365.83 31.9977 371.065 39.7684 374.531C45.3924 376.958 51.4204 378.312 57.542 378.525C63.8647 378.872 70.1936 377.965 76.164 375.855L77.9849 375.173H78.2331L78.4401 375.297L104.532 388.539L103.766 389.201C100.973 380.552 98.2829 372.172 95.6758 364.123V363.813L95.9034 363.586C102.233 357.21 106.931 349.403 109.601 340.825C112.019 332.983 112.724 324.714 111.67 316.575C110.732 309.343 108.407 302.359 104.821 296.008C101.731 290.553 97.7436 285.656 93.0273 281.524C89.1363 278.254 84.8296 275.513 80.2195 273.372C76.7312 271.868 73.0983 270.724 69.3774 269.958L65.2391 269.275L62.2389 269.048L60.4181 268.924H59.7974C60.0036 268.901 60.2118 268.901 60.4181 268.924H62.2596L65.2598 269.048L69.398 269.648C73.1653 270.357 76.8478 271.46 80.385 272.938C85.0744 275.053 89.4586 277.788 93.4205 281.069C98.2234 285.183 102.295 290.08 105.463 295.553C109.15 301.972 111.547 309.05 112.518 316.389C113.66 324.653 113.004 333.066 110.594 341.053C107.907 349.809 103.136 357.782 96.6896 364.289L96.8138 363.751C99.4209 371.8 102.131 380.18 104.945 388.808L105.339 390.07L104.159 389.47L78.0676 376.248H78.5228L76.6606 376.931C70.5752 379.073 64.1292 380.001 57.6869 379.663C51.4333 379.424 45.2792 378.021 39.5407 375.524C28.5945 370.836 19.4874 362.689 13.6148 352.33C10.9123 347.545 8.93873 342.385 7.75917 337.018C7.43615 335.731 7.19429 334.425 7.03498 333.107C6.86945 331.804 6.60047 330.521 6.5384 329.238C5.97841 321.876 6.75654 314.473 8.83512 307.388C10.1419 303.131 11.955 299.047 14.2355 295.222C18.0967 288.592 23.3228 282.858 29.5676 278.4C34.2844 275.065 39.5212 272.534 45.0653 270.91L48.3138 270.082C49.2699 269.861 50.2368 269.688 51.2105 269.565C52.7202 269.285 54.2488 269.119 55.7833 269.068L58.618 268.965C58.9403 268.922 59.2652 268.901 59.5905 268.903Z" fill="#4CAF4F"/>
<path d="M71.3844 317.155H67.5565L59.2801 305.526V297.891C59.2801 297.891 53.3624 297.519 54.0659 307.513C54.7694 317.506 54.0659 314.961 54.0659 314.961C54.0659 314.961 41.5064 314.961 40.4719 316.099C39.4373 317.237 39.3752 329.362 39.2304 336.128C39.1511 337.759 39.6191 339.37 40.56 340.705C41.501 342.039 42.861 343.021 44.4239 343.494C44.8619 343.616 45.3142 343.678 45.7688 343.681C48.9138 343.681 64.9081 341.136 64.9081 341.136H71.5085L71.3844 317.155Z" fill="#4CAF4F"/>
<path d="M82.33 315.106L79.9712 341.26H73.4328V315.644L82.33 315.106Z" fill="#4CAF4F"/>
<path d="M160.315 847.551V829.861L128.595 829.633L128.326 856.387L130.292 856.531C139.044 857.09 174.819 857.918 180.696 856.097C187.234 854.069 160.315 847.551 160.315 847.551Z" fill="#4CAF4F"/>
<path d="M181.441 854.441C181.441 854.731 169.564 854.979 154.935 854.979C140.307 854.979 128.43 854.731 128.43 854.441C128.43 854.151 140.307 853.903 154.935 853.903C169.564 853.903 181.441 854.151 181.441 854.441Z" fill="#263238"/>
<path d="M160.874 851.172C160.605 851.027 160.874 850.096 161.515 849.103C162.156 848.11 163.025 847.696 163.232 847.903C163.439 848.11 163.005 848.896 162.384 849.745C161.763 850.593 161.143 851.317 160.874 851.172Z" fill="#263238"/>
<path d="M162.901 852.331C162.612 852.331 162.756 851.172 163.377 850.075C163.998 848.979 164.826 848.317 165.053 848.482C165.281 848.648 164.908 849.579 164.329 850.551C163.75 851.524 163.17 852.434 162.901 852.331Z" fill="#263238"/>
<path d="M137.989 854.359C137.865 854.359 137.389 853.986 136.706 853.2C135.873 852.189 134.944 851.261 133.934 850.427C132.94 849.633 131.756 849.113 130.499 848.917C129.526 848.793 128.906 848.917 128.844 848.793C128.782 848.669 129.382 848.234 130.52 848.151C132.022 848.12 133.487 848.618 134.658 849.558C135.755 850.453 136.681 851.539 137.389 852.765C137.865 853.676 138.113 854.276 137.989 854.359Z" fill="#263238"/>
<path d="M160.977 847.841C161.122 848.089 160.584 848.71 159.673 849.041C158.763 849.372 157.956 849.248 157.915 849.041C157.873 848.834 158.515 848.4 159.301 848.11C160.087 847.82 160.811 847.593 160.977 847.841Z" fill="#263238"/>
<path d="M160.48 846.123C160.48 846.434 159.653 846.682 158.577 846.703C157.501 846.723 156.653 846.475 156.673 846.185C156.694 845.896 157.542 845.627 158.577 845.606C159.611 845.585 160.439 845.834 160.48 846.123Z" fill="#263238"/>
<path d="M238.424 847.551V829.861L206.704 829.633L206.435 856.118L208.401 856.262C217.153 856.821 252.949 857.918 258.805 856.097C265.343 854.069 238.424 847.551 238.424 847.551Z" fill="#4CAF4F"/>
<path d="M259.55 854.483C259.55 854.772 247.694 855.021 233.044 855.021C218.395 855.021 206.56 854.772 206.56 854.483C206.56 854.193 218.416 853.945 233.044 853.945C247.673 853.945 259.55 854.193 259.55 854.483Z" fill="#263238"/>
<path d="M238.983 851.172C238.734 851.027 238.983 850.096 239.624 849.103C240.265 848.11 241.134 847.696 241.341 847.903C241.548 848.11 241.114 848.896 240.493 849.745C239.872 850.593 239.252 851.317 238.983 851.172Z" fill="#263238"/>
<path d="M241.01 852.331C240.741 852.331 240.865 851.172 241.507 850.075C242.148 848.979 242.955 848.317 243.183 848.482C243.41 848.648 243.017 849.579 242.438 850.551C241.859 851.524 241.3 852.434 241.01 852.331Z" fill="#263238"/>
<path d="M216.098 854.359C215.974 854.359 215.519 853.986 214.815 853.2C213.982 852.189 213.053 851.261 212.043 850.427C211.049 849.633 209.865 849.113 208.608 848.917C207.656 848.793 207.015 848.917 206.953 848.793C206.891 848.669 207.491 848.234 208.629 848.151C210.13 848.12 211.596 848.618 212.767 849.558C213.87 850.447 214.796 851.535 215.498 852.765C215.974 853.676 216.222 854.276 216.098 854.359Z" fill="#263238"/>
<path d="M239.086 847.841C239.231 848.089 238.693 848.71 237.782 849.041C236.872 849.372 236.065 849.248 236.024 849.041C235.982 848.834 236.624 848.4 237.41 848.11C238.196 847.82 238.92 847.593 239.086 847.841Z" fill="#263238"/>
<path d="M238.631 846.123C238.631 846.434 237.803 846.682 236.727 846.703C235.651 846.723 234.824 846.475 234.844 846.185C234.865 845.896 235.693 845.627 236.727 845.606C237.762 845.585 238.631 845.834 238.631 846.123Z" fill="#263238"/>
<path d="M355.287 322.203C354.46 321.355 352.411 321.769 352.411 321.769C352.617 320.578 352.617 319.36 352.411 318.169C352.039 317.01 349.432 317.238 349.432 317.238C349.312 316.262 349.312 315.275 349.432 314.299C349.453 314.083 349.406 313.866 349.299 313.677C349.191 313.488 349.028 313.337 348.832 313.244C347.598 312.741 346.273 312.502 344.942 312.541C343.349 311.403 349.804 302.361 352.204 299.464C354.605 296.567 354.17 294.312 352.039 294.312C350.57 294.312 343.038 303.002 340.721 305.92C338.403 308.837 332.258 316.948 332.051 310.472C331.844 303.995 329.237 299.112 327.603 298.285C325.968 297.457 324.23 299.402 325.12 301.202C325.901 303.247 326.389 305.393 326.568 307.575C326.793 309.313 326.716 311.077 326.34 312.789C325.654 315.974 324.721 319.101 323.547 322.141H323.382C323.382 322.141 278.234 365.448 274.964 368.531C272.047 371.304 213.367 365.241 201.594 364C197.593 363.414 193.553 363.137 189.51 363.172C184.399 363.399 183.489 364.124 178.399 364.186C165.544 364.328 152.72 365.456 140.038 367.558C134.295 368.535 128.931 371.069 124.531 374.886C120.13 378.703 116.862 383.655 115.084 389.201C103.228 426.238 76.3709 513.907 71.6327 563.152C68.0522 569.645 64.8198 576.323 61.9492 583.16C58.618 592.223 59.4249 592.533 60.5422 592.74C63.5631 593.299 66.9979 577.035 68.2807 580.967C69.5636 584.898 61.763 600.354 64.9288 600.809C69.067 601.389 72.3569 584.257 72.75 582.891C73.1431 581.525 75.1916 581.96 74.8191 583.243C74.2191 585.064 68.4049 604.368 72.4603 604.989C74.695 605.32 74.9433 601.244 74.9433 601.244C74.9433 601.244 79.0815 582.767 80.9644 583.139C82.8473 583.512 80.8402 594.416 79.8884 598.058C78.9367 601.699 80.2609 603.541 82.2058 602.651C83.5301 602.03 86.6958 590.961 87.5649 587.36C88.4339 583.76 90.6064 573.787 93.5239 579.56C96.4413 585.333 100.869 588.684 102.69 588.767C103.1 588.72 103.487 588.551 103.801 588.282C104.114 588.013 104.34 587.656 104.449 587.258C104.558 586.86 104.545 586.438 104.412 586.047C104.28 585.656 104.033 585.313 103.704 585.064C102.138 583.534 100.794 581.793 99.7105 579.891C98.7453 578.409 98.0452 576.771 97.6414 575.049C96.8076 571.617 96.3224 568.109 96.1931 564.579L95.862 562.51C100.497 539.564 113.843 472.214 133.106 429.197L141.01 445.46L144.445 457.503L123.381 509.5L213.222 508.32L199.814 456.717L216.098 402.92C233.706 403.313 278.916 403.975 286.448 400.561C295.925 396.423 344.942 334.515 344.942 334.515C348.137 332.032 351.197 329.38 354.108 326.569C354.108 326.569 357.088 324.066 355.287 322.203Z" fill="#FFBE9D"/>
<path d="M119.429 471.076C122.036 462.179 135.423 418.189 135.423 418.189C135.423 418.189 142.003 454.047 140.265 458.372C138.666 462.074 136.778 465.644 134.616 469.048C119.429 492.16 121.416 503.727 121.416 503.727L213.181 500.933C213.388 488.105 205.794 458.268 204.221 453.509C202.649 448.75 207.884 433.17 207.884 433.17C207.884 433.17 218.229 422.638 217.857 417.217C217.66 412.347 217.058 407.503 216.057 402.733L271.923 404.802L270.164 366.938L189.924 358.909C187.131 366.793 161.867 362.923 161.867 362.923C134.596 363.834 132.899 368.841 121.56 377.656C110.222 386.47 91.4548 462.117 91.4548 462.117L119.429 471.076Z" fill="#4CAF4F"/>
<path d="M173.681 462.117C172.091 462.401 170.471 462.484 168.86 462.365C165.86 462.365 161.743 462.158 157.211 461.703C152.68 461.248 148.583 460.606 145.666 460.027C144.057 459.82 142.48 459.417 140.969 458.827C142.586 458.828 144.2 458.98 145.79 459.282C148.728 459.655 152.804 460.172 157.315 460.627C161.825 461.082 165.922 461.393 168.881 461.6C170.494 461.62 172.101 461.793 173.681 462.117Z" fill="#263238"/>
<path d="M179.971 454.316C178.381 455.096 176.698 455.673 174.964 456.034C166.709 458.203 158.192 459.213 149.659 459.034C147.893 459.091 146.127 458.925 144.403 458.537C146.146 458.317 147.903 458.227 149.659 458.268C152.907 458.165 157.377 457.937 162.301 457.358C167.226 456.779 171.612 455.951 174.716 455.289C176.44 454.828 178.197 454.503 179.971 454.316Z" fill="#263238"/>
<path d="M210.843 419.514C210.801 421.091 210.586 422.66 210.201 424.19C209.663 427.066 208.836 430.997 207.78 435.301C206.725 439.605 205.711 443.578 204.801 446.267C204.435 447.807 203.893 449.3 203.187 450.716C203.302 449.143 203.594 447.589 204.056 446.081C204.842 442.853 205.732 439.129 206.725 435.053C207.718 430.977 208.67 427.252 209.456 424.025C209.736 422.471 210.202 420.957 210.843 419.514Z" fill="#263238"/>
<path d="M120.402 465.8C115.615 465.061 110.891 463.961 106.27 462.51C101.548 461.406 96.914 459.954 92.4066 458.165C97.191 458.916 101.914 460.016 106.539 461.455C111.262 462.555 115.896 464.007 120.402 465.8Z" fill="#263238"/>
<path d="M217.05 402.278C216.269 402.413 215.472 402.413 214.691 402.278C212.53 402.056 210.408 401.549 208.38 400.768C204.996 399.496 201.914 397.53 199.334 394.996C196.754 392.463 194.733 389.418 193.4 386.056C191.927 382.359 191.297 378.379 191.558 374.407C191.651 371.131 192.63 367.942 194.393 365.179C195.633 363.318 197.485 361.949 199.628 361.31C200.201 361.152 200.793 361.075 201.387 361.082C201.801 361.082 202.008 361.082 202.008 361.082C202.008 361.082 201.138 361.082 199.752 361.641C197.786 362.367 196.119 363.729 195.014 365.51C192.2 369.938 191.414 378.028 194.414 385.58C195.81 389.141 197.996 392.339 200.807 394.933C203.111 397.055 205.764 398.763 208.649 399.981C211.357 401.052 214.174 401.822 217.05 402.278Z" fill="#263238"/>
<path d="M265.281 404.057C264.763 397.712 264.598 391.344 264.784 384.98C264.622 378.622 264.816 372.26 265.364 365.924C265.882 372.262 266.047 378.624 265.86 384.98C266.034 391.345 265.841 397.715 265.281 404.057Z" fill="#263238"/>
<path d="M189.386 361.227C189.614 356.613 190.089 351.398 190.089 351.398C190.089 351.398 201.511 350.136 202.194 338.342C202.877 326.548 202.194 299.34 202.194 299.34L181.503 288.746L158.535 306.809L162.074 365.779L183.137 367.124C184.747 367.168 186.309 366.573 187.481 365.467C188.652 364.362 189.337 362.837 189.386 361.227Z" fill="#FFBE9D"/>
<path d="M191.434 329.011C191.434 329.011 191.434 329.238 191.248 329.507C191.094 329.703 190.895 329.857 190.668 329.958C190.441 330.059 190.193 330.103 189.945 330.087C188.62 330.087 187.337 328.556 186.882 326.776C186.666 325.914 186.666 325.011 186.882 324.148C186.925 323.772 187.06 323.412 187.277 323.101C187.494 322.791 187.785 322.539 188.124 322.369C188.402 322.254 188.714 322.254 188.993 322.369C189.199 322.471 189.366 322.639 189.469 322.845C189.613 323.197 189.469 323.424 189.469 323.404C189.469 323.383 189.469 323.197 189.262 322.99C189.154 322.842 188.995 322.738 188.815 322.7C188.636 322.662 188.448 322.691 188.289 322.783C188.035 322.936 187.825 323.151 187.676 323.408C187.528 323.665 187.447 323.955 187.441 324.252C187.267 325.022 187.267 325.82 187.441 326.59C187.855 328.204 188.972 329.507 189.965 329.632C190.16 329.658 190.357 329.644 190.546 329.591C190.735 329.537 190.91 329.445 191.062 329.321C191.31 329.156 191.393 328.99 191.434 329.011Z" fill="#EB996E"/>
<path d="M209.291 292.967C207.698 287.546 201.925 284.856 196.669 283.366C188.662 281.09 180.013 280.097 172.192 282.973C164.37 285.849 154.977 290.898 154.977 299.526C150.362 299.153 147.714 303.188 145.893 308.195C144.729 311.246 144.031 314.455 143.824 317.713C143.245 329.011 140.079 344.612 132.754 352.888C128.616 357.502 122.885 360.689 120.526 366.441C118.457 371.428 119.533 377.345 117.608 382.394C115.891 386.842 112.105 390.008 109.332 393.877C106.507 398.267 104.845 403.302 104.501 408.511C104.157 413.719 105.143 418.929 107.366 423.652C109.605 428.254 112.758 432.351 116.632 435.695C120.506 439.039 125.02 441.559 129.899 443.102C139.564 446.042 149.87 446.143 159.591 443.391C166.886 441.647 173.691 438.273 179.496 433.522C185.435 428.672 189.514 421.917 191.041 414.403C192.51 405.961 190.151 397.374 188.393 388.974C182.889 362.427 184.461 361.041 191.414 336.398C191.579 335.963 191.662 335.508 191.786 335.073C191.91 334.639 191.972 334.432 192.055 334.101C192.253 333.127 192.356 332.136 192.365 331.142C191.35 331.52 190.248 331.599 189.189 331.372C188.129 331.145 187.157 330.62 186.386 329.859C185.613 329.048 185.074 328.042 184.826 326.95C184.578 325.857 184.631 324.717 184.979 323.652C185.467 322.487 186.194 321.437 187.114 320.571C188.034 319.705 189.125 319.041 190.317 318.624C192.614 317.672 195.076 317.175 197.331 316.12C202.111 313.844 205.422 309.127 207.677 304.181C209.531 300.754 210.103 296.778 209.291 292.967Z" fill="#263238"/>
<path d="M192.262 329.569C192.699 330.215 193.06 330.91 193.338 331.638C193.959 332.942 194.786 334.784 195.697 336.915L195.862 337.308H195.428L193.359 337.494C191.931 337.494 190.731 337.763 189.324 337.742C189.201 337.715 189.088 337.657 188.994 337.574C188.9 337.49 188.828 337.385 188.786 337.266C188.724 337.078 188.724 336.875 188.786 336.687C188.834 336.408 188.896 336.132 188.972 335.859L189.344 334.39C189.532 333.41 189.823 332.453 190.214 331.535C190.175 332.534 190.029 333.526 189.779 334.494L189.489 335.963C189.386 336.459 189.2 337.225 189.489 337.163C190.524 337.163 191.993 336.935 193.359 336.853L195.428 336.666L195.159 337.122C194.269 335.052 193.524 333.108 193.09 331.763C192.708 331.076 192.43 330.337 192.262 329.569Z" fill="#4CAF4F"/>
<path d="M121.416 503.727L213.181 500.933L253.115 656.82L245.769 835.633H197.249L203.187 660.627L167.702 552.102L173.164 842.565L124.126 843.289L118.974 570.269C118.746 562.676 116.263 545.564 117.195 538.032L121.416 503.727Z" fill="#263238"/>
<path d="M179.909 554.316C178.407 554.411 176.899 554.321 175.419 554.047C172.647 553.716 168.86 553.137 164.701 552.309C160.542 551.482 156.818 550.53 154.128 549.764C152.69 549.448 151.299 548.948 149.99 548.275C149.99 547.964 156.735 549.578 165.012 551.254C173.288 552.93 179.951 554.006 179.909 554.316Z" fill="#455A64"/>
<path d="M245.273 825.825C245.273 826.115 234.286 826.363 220.733 826.363C207.18 826.363 196.173 826.115 196.173 825.825C196.173 825.536 207.16 825.287 220.733 825.287C234.306 825.287 245.273 825.515 245.273 825.825Z" fill="#455A64"/>
<path d="M172.73 835.012C172.73 835.322 162.053 835.55 148.893 835.55C135.734 835.55 125.078 835.322 125.078 835.012C125.078 834.702 135.755 834.474 148.893 834.474C162.032 834.474 172.73 834.722 172.73 835.012Z" fill="#455A64"/>
<path d="M166.398 834.267C166.108 834.267 164.826 770.808 163.522 692.533C162.218 614.259 161.453 550.758 161.722 550.758C161.991 550.758 163.315 614.197 164.598 692.513C165.881 770.828 166.708 834.267 166.398 834.267Z" fill="#455A64"/>
<path d="M238.755 825.825C238.732 825.543 238.732 825.259 238.755 824.977V822.494C238.755 820.26 238.92 817.052 239.045 812.976C239.334 804.7 239.748 792.678 240.265 777.946C241.383 748.316 242.955 707.472 244.673 662.386C244.673 661.952 244.673 661.538 244.673 661.165V661.31C233.81 617.859 223.981 578.422 216.843 549.889L208.567 516.141C207.615 512.189 206.891 509.106 206.373 506.954C206.125 505.941 205.959 505.154 205.815 504.554C205.734 504.285 205.685 504.007 205.67 503.727C205.777 503.987 205.86 504.257 205.918 504.534C206.084 505.113 206.291 505.899 206.58 506.892C207.139 508.961 207.946 512.106 208.98 516.038C211.05 524.025 213.967 535.529 217.609 549.702C224.809 578.215 234.741 617.548 245.749 661.062V661.207C245.749 661.579 245.749 662.014 245.749 662.428C243.907 707.514 242.231 748.337 241.01 777.967C240.369 792.72 239.831 804.658 239.458 812.976C239.252 817.114 239.086 820.26 238.983 822.494C238.983 823.549 238.858 824.377 238.838 824.977C238.841 825.262 238.813 825.546 238.755 825.825Z" fill="#455A64"/>
<path d="M222.926 657.524C219.441 658.67 215.851 659.467 212.208 659.904C207.739 660.669 203.932 661.207 202.214 661.29V660.876C202.773 661.042 203.063 661.145 203.063 661.228C203.063 661.311 202.711 661.228 202.132 661.228H200.89L202.132 660.855C203.746 660.379 207.553 659.593 212.022 658.786C215.607 658.009 219.259 657.586 222.926 657.524Z" fill="#455A64"/>
<path d="M222.078 663.462C218.85 663.61 215.616 663.465 212.415 663.028C209.183 662.962 205.963 662.608 202.794 661.972C209.26 661.445 215.769 661.948 222.078 663.462Z" fill="#455A64"/>
<path opacity="0.2" d="M121.022 507.017C122.109 508.412 123.478 509.563 125.04 510.393C126.601 511.224 128.32 511.716 130.085 511.838C133.781 512.275 137.519 512.206 141.196 511.631C164.888 509.003 189.986 506.582 213.181 500.933C183.158 502.609 151.438 502.051 121.416 503.727L121.105 506.292" fill="black"/>
<g opacity="0.2">
<path d="M151.956 549.33L168.881 615.004L167.702 552.102L151.956 549.33Z" fill="black"/>
</g>
</svg>
