<svg width="94" height="58" viewBox="0 0 94 58" fill="none" xmlns="http://www.w3.org/2000/svg">
<g clip-path="url(#clip0_1_988)">
<path d="M87.9932 7.12941C87.9932 7.19704 87.9932 7.28157 87.9756 7.3323C87.8875 7.99166 87.8875 8.65103 87.9402 9.32731C87.9756 9.49638 88.0107 9.66545 88.1517 9.80071C88.3807 10.0543 88.7329 10.0036 88.8739 9.69926C88.9444 9.5471 88.9444 9.39493 88.9091 9.24278C88.7329 8.60031 88.6978 7.92404 88.6802 7.26466C88.6802 7.23085 88.6802 7.18012 88.6802 7.12941C88.8739 7.1125 89.0501 7.09559 89.2086 7.09559C89.332 7.07869 89.4377 7.06178 89.5258 7.01105C89.7899 6.87581 89.7899 6.58839 89.508 6.45313C89.4024 6.40241 89.2615 6.3855 89.1382 6.3855C88.6978 6.40241 88.2574 6.40241 87.817 6.40241C87.6585 6.40241 87.4999 6.41932 87.3413 6.43622C87.2532 6.45313 87.1476 6.45313 87.0772 6.50386C86.9538 6.55457 86.8834 6.6391 86.8834 6.75745C86.901 6.87581 86.9538 6.94343 87.0772 6.99416C87.1476 7.04488 87.2356 7.06178 87.3237 7.06178C87.5351 7.07869 87.7642 7.1125 87.9932 7.12941ZM92.8374 7.90713C92.8374 7.92404 92.855 7.94094 92.855 7.94094C92.9255 8.39743 92.996 8.83701 93.0488 9.27659C93.0665 9.42874 93.0841 9.564 93.1897 9.68235C93.4187 9.96977 93.7711 9.93595 93.9295 9.63164C94 9.47947 94.0176 9.32731 93.9824 9.15824C93.8768 8.65103 93.8238 8.14382 93.7182 7.65352C93.6477 7.34919 93.5597 7.06178 93.4716 6.79127C93.4187 6.6222 93.2954 6.50384 93.0841 6.48695C92.8727 6.45313 92.7141 6.55457 92.626 6.70674C92.5203 6.84198 92.4322 6.97724 92.3617 7.12941C92.2385 7.39992 92.1328 7.67044 91.9919 7.92404C91.9742 7.99166 91.9566 8.04239 91.9214 8.0931C91.9038 8.05929 91.8862 8.04239 91.8862 8.04239C91.6571 7.61971 91.4458 7.19704 91.2168 6.79127C91.1815 6.75745 91.1639 6.72364 91.1463 6.68983C91.0406 6.53767 90.9174 6.45313 90.7236 6.45313C90.5474 6.47003 90.4064 6.57148 90.3184 6.72364C90.2831 6.79127 90.2831 6.84198 90.2655 6.90962C90.195 7.45064 90.1069 7.99166 90.0366 8.53268C90.0013 8.83701 89.9837 9.14133 89.9837 9.44566C89.9661 9.51328 89.9837 9.59781 90.0189 9.66545C90.0542 9.8007 90.1599 9.88524 90.3007 9.90214C90.4769 9.91906 90.6002 9.86833 90.6531 9.73307C90.7059 9.63164 90.7236 9.5471 90.7412 9.46257C90.8117 9.15824 90.8645 8.87082 90.9174 8.58341C90.9525 8.41434 90.9701 8.27908 91.023 8.0931C91.0582 8.16073 91.0934 8.21146 91.1287 8.26217C91.2872 8.46506 91.4458 8.66794 91.6396 8.83701C91.8333 8.97226 91.9919 8.95536 92.1504 8.80319C92.1857 8.76938 92.2033 8.75248 92.2385 8.71865C92.3971 8.48196 92.5908 8.24527 92.7493 8.00856C92.7846 7.97475 92.8022 7.94094 92.8374 7.90713Z" fill="#3A3B7B"/>
<path d="M52.2489 7.4616C52.1264 7.78291 52.103 8.0144 52.1596 8.2068C52.222 8.46843 52.3841 8.55409 52.6041 8.48754C54.6731 7.99648 59.2102 9.39033 60.89 9.77881C61.2862 9.86038 61.6085 9.36955 61.3381 8.92949C60.9436 8.50332 56.4085 6.67873 54.6781 6.57925C53.9998 6.54246 52.7872 6.37553 52.2489 7.4616Z" fill="#3A3B7B"/>
<path d="M69.9807 1.55523C70.2012 1.67738 70.3245 1.79391 70.3853 1.92411C70.476 2.09489 70.4281 2.21305 70.2759 2.27335C68.9082 2.91401 67.0882 5.67219 66.3535 6.62345C66.1755 6.84228 65.7647 6.71512 65.7026 6.35525C65.7154 5.94836 67.3287 2.95512 68.2291 2.13987C68.5829 1.82157 69.1675 1.19702 69.9807 1.55523Z" fill="#3A3B7B"/>
<path d="M59.0888 0.197458C59.3537 0.00582489 59.629 -0.0613292 59.7696 0.0632084C61.8332 1.757 62.9275 4.43928 63.6051 6.89484C63.6306 6.95205 63.6322 7.03415 63.6118 7.11979C63.6033 7.19299 63.5476 7.27031 63.4591 7.33015C63.3646 7.3962 63.2832 7.41632 63.2449 7.3594C62.3405 6.17874 57.175 1.58501 59.0888 0.197458Z" fill="#3A3B7B"/>
<path d="M15.3905 29.5636C15.8851 29.2102 16.4227 28.916 16.9917 28.6877C17.587 28.5243 18.2215 28.5514 18.7993 28.7649C19.377 28.9785 19.8668 29.3667 20.1942 29.871C20.487 30.374 20.6016 30.9548 20.5207 31.5258C20.4399 32.0968 20.168 32.6271 19.7458 33.0369C19.4185 33.3691 19.047 33.6584 18.641 33.8975C16.8316 35.0194 15.0062 36.0798 13.1808 37.2017C12.8073 37.4824 12.411 37.7344 11.9959 37.9548C11.3643 38.257 10.6426 38.3379 9.95551 38.1836C9.2684 38.0294 8.65909 37.6493 8.23295 37.1095C7.91438 36.7273 7.64553 36.3093 7.43233 35.8646C5.70299 32.3761 3.90962 28.9028 2.24433 25.3527C1.47573 23.8159 0.851255 22.0485 0.242786 20.3427C-0.020466 19.847 -0.0718731 19.2724 0.0995107 18.7409C0.270895 18.2094 0.651548 17.7631 1.1605 17.4968C1.66945 17.2306 2.26654 17.1654 2.82479 17.3152C3.38305 17.4649 3.85842 17.8178 4.14979 18.2987C5.04541 19.441 5.83822 20.6544 6.51963 21.9257C8.24896 24.9993 9.89824 28.0729 11.5635 31.0543C11.6605 31.2191 11.7674 31.3781 11.8838 31.5307C13.1372 31.0249 14.3161 30.3636 15.3905 29.5636Z" fill="#3A3B7B"/>
<path d="M33.2707 28.4915C29.3157 32.9328 22.6866 31.8109 19.356 26.094C16.9862 22.0367 16.5699 15.3361 21.7259 11.1099C22.8269 10.2251 24.1434 9.62234 25.5528 9.35789C27.2808 9.12013 29.0429 9.41271 30.5871 10.1938C32.1314 10.975 33.3789 12.2046 34.1515 13.7071C36.9696 18.625 36.5693 24.8952 33.2707 28.4915ZM31.6695 18.1332C31.2493 16.9247 30.4064 15.8929 29.2836 15.2132C28.6483 14.7786 27.8763 14.5672 27.0977 14.6148C26.319 14.6624 25.5812 14.966 25.0084 15.4744C22.7187 17.4263 22.2382 22.0521 23.9035 24.8031C24.1158 25.2516 24.4275 25.6503 24.817 25.9711C25.2066 26.292 25.6645 26.5272 26.1587 26.6604C26.6528 26.7936 27.1713 26.8216 27.678 26.7424C28.1846 26.663 28.667 26.4785 29.0916 26.2015C30.3328 25.2779 31.2434 24.0061 31.6967 22.5629C32.1502 21.1197 32.1239 19.5767 31.6215 18.1486L31.6695 18.1332Z" fill="#3A3B7B"/>
<path d="M49.4111 20.0696C49.0062 20.1532 48.5879 20.1582 48.1809 20.0842C47.774 20.0103 47.3864 19.8591 47.0413 19.6393C46.7393 19.4735 46.4794 19.2456 46.2801 18.9718C46.0809 18.698 45.9474 18.3854 45.8893 18.0561C45.831 17.7269 45.8497 17.3895 45.9435 17.068C46.0375 16.7465 46.2047 16.4489 46.4329 16.1968C46.8304 15.6901 47.3946 15.3273 48.0341 15.1671C49.7037 14.7021 51.4224 14.4185 53.158 14.3219C53.5394 14.2793 53.9258 14.3103 54.2944 14.413C54.6631 14.5158 55.0066 14.6881 55.305 14.9201C55.6033 15.152 55.8503 15.4388 56.0316 15.7636C56.2128 16.0884 56.3246 16.4447 56.3605 16.8116C56.8608 18.6135 56.9156 20.5029 56.5206 22.3288C55.0795 28.2302 50.1157 30.2587 44.5434 28.3685C42.9792 27.8631 41.6077 26.9214 40.6043 25.6637C39.2661 24.1491 38.3172 22.3541 37.8342 20.4231C37.4429 18.7036 37.4857 16.9193 37.9593 15.2189C38.4328 13.5186 39.3233 11.9516 40.5563 10.6489C41.7264 9.23293 43.2452 8.11858 44.9757 7.40616C46.0692 6.82768 47.3488 6.6632 48.5625 6.94512C48.8378 7.01825 49.0877 7.16074 49.2863 7.35783C49.4849 7.55492 49.625 7.7994 49.692 8.06595C49.759 8.33249 49.7504 8.61138 49.6673 8.8737C49.584 9.136 49.4293 9.37218 49.219 9.55773C48.8191 9.90513 48.3847 10.214 47.922 10.4798C46.4984 11.3499 45.2596 12.4711 44.2712 13.784C43.6232 14.6335 43.177 15.6091 42.964 16.6419C42.7509 17.6747 42.7763 18.7398 43.0383 19.7623C43.4014 21.1564 44.2072 22.4078 45.344 23.343C48.8667 26.4168 53.4462 23.4506 52.6456 19.2551C51.4768 19.5318 50.4519 19.8238 49.4111 20.0696Z" fill="#3A3B7B"/>
<path d="M70.932 28.7373C65.728 31.811 59.8035 28.7373 58.5064 22.2827C57.5617 17.6722 59.3551 11.2175 65.632 8.75858C66.9675 8.24666 68.416 8.06693 69.8432 8.23605C71.5579 8.53732 73.1309 9.34751 74.3403 10.5524C75.5497 11.7573 76.3347 13.2961 76.5844 14.952C77.6412 20.4384 75.2394 26.2938 70.932 28.7373ZM72.7415 18.3944C72.7399 17.1178 72.2694 15.8824 71.4125 14.9059C70.9544 14.3019 70.2923 13.8691 69.5389 13.6813C68.7855 13.4936 67.9877 13.5624 67.2812 13.8762C64.4631 15.0442 62.4775 19.2858 63.1981 22.4057C63.2532 22.8952 63.4189 23.3674 63.6838 23.7891C63.9488 24.2108 64.3065 24.5718 64.732 24.8471C65.1575 25.1222 65.6405 25.3049 66.1471 25.3823C66.6539 25.4595 67.1722 25.4297 67.6655 25.2949C69.1551 24.7954 70.445 23.862 71.3549 22.6249C72.2649 21.3878 72.7497 19.9088 72.7415 18.3944Z" fill="#3A3B7B"/>
<path d="M81.847 30.0283C81.7684 30.5908 81.4603 31.1003 80.9903 31.4447C80.5203 31.789 79.9271 31.9402 79.3411 31.8648C78.755 31.7894 78.2242 31.4936 77.8654 31.0426C77.5064 30.5916 77.3491 30.0222 77.4276 29.4597C77.5062 28.8972 77.8144 28.3877 78.2842 28.0433C78.7542 27.6989 79.3475 27.5478 79.9335 27.6232C80.5195 27.6986 81.0504 27.9943 81.4093 28.4453C81.7681 28.8964 81.9257 29.4659 81.847 30.0283ZM80.4539 9.29647C80.7584 8.85007 81.2052 8.51012 81.7276 8.32733C82.2498 8.14454 82.8197 8.12869 83.3522 8.28217C83.8935 8.41216 84.3717 8.71667 84.707 9.14472C85.0422 9.57279 85.2139 10.0984 85.1936 10.6335C85.123 11.4919 84.9892 12.3444 84.7933 13.1846C84.2649 16.0278 83.7525 18.8709 83.1921 21.6833C82.9359 22.8052 82.5996 23.881 82.2313 25.0182C82.1032 25.3737 81.8891 25.695 81.6069 25.9557C81.4313 26.1518 81.2072 26.3022 80.955 26.3931C80.7028 26.484 80.4309 26.5124 80.1644 26.4756C79.8978 26.4388 79.6451 26.3381 79.4298 26.1828C79.2146 26.0274 79.0436 25.8224 78.9328 25.5869C78.7424 25.1643 78.639 24.7101 78.6285 24.2498C78.6285 22.3441 78.6285 20.4232 78.7566 18.502C78.9743 15.7605 79.4024 13.038 80.0376 10.3569C80.1124 9.99768 80.2533 9.65417 80.4539 9.34258V9.29647Z" fill="#3A3B7B"/>
<path fill-rule="evenodd" clip-rule="evenodd" d="M8.62527 42.378C8.43621 42.7831 8.38436 43.2347 8.47675 43.6693C8.53821 44.2422 8.67321 44.8057 8.87866 45.347C9.13518 46.0097 9.42221 46.6651 9.77613 47.4729C9.85753 47.6588 9.94258 47.8528 10.0316 48.057C10.5089 49.1514 11.1077 50.5499 11.9065 52.574C12.1326 53.149 12.3334 53.7287 12.5356 54.3124C12.6172 54.5483 12.6992 54.7849 12.7831 55.022C13.0839 55.8651 13.6013 56.6225 14.2873 57.2228C14.5785 57.5528 14.9649 57.7932 15.3981 57.9134C15.8398 58.036 16.3095 58.0283 16.7465 57.8912C17.1834 57.7539 17.5672 57.4937 17.848 57.1443C18.1233 56.8017 18.287 56.3888 18.3188 55.9575C18.4974 55.1173 18.4364 54.2461 18.1421 53.4361C17.6749 52.0912 17.1427 50.7442 16.529 49.4269L16.5262 49.4211C15.5167 47.3599 14.4905 45.3131 13.4157 43.2654L13.4076 43.251C13.093 42.7176 12.6841 42.2407 12.1993 41.8418C11.8846 41.4857 11.4505 41.2456 10.9711 41.1628C10.4815 41.0783 9.97654 41.1634 9.54637 41.4032C9.13943 41.6263 8.81685 41.9675 8.62527 42.378Z" fill="#3A3B7B"/>
<path fill-rule="evenodd" clip-rule="evenodd" d="M24.0448 37.3026C22.4619 36.9092 20.8087 36.8518 19.2005 37.1347C17.9549 37.2524 16.7298 37.5282 15.8791 38.0744C15.4464 38.3524 15.0966 38.7094 14.902 39.1631C14.7064 39.6193 14.6814 40.1411 14.8417 40.7224C15.1345 41.7872 15.5146 42.8225 15.8934 43.8545L15.9548 44.0217L15.9563 44.0254C17.0969 47.0234 18.2484 50.0114 19.4104 52.989C19.5459 53.4583 19.7375 53.9109 19.9814 54.3379L19.9859 54.3458C20.3081 54.8762 20.7213 55.3507 21.2081 55.7491C21.4515 55.9682 21.7526 56.1198 22.079 56.1876C22.4087 56.2559 22.7515 56.2361 23.0702 56.1301C23.389 56.0243 23.6713 55.8364 23.8864 55.587C24.098 55.3417 24.2366 55.0462 24.2875 54.7316C24.4975 53.8772 24.4302 52.9815 24.0945 52.1647C23.9898 51.8899 23.9076 51.609 23.821 51.3133C23.7921 51.2147 23.7628 51.1144 23.732 51.0123C26.3918 50.0144 29.2218 48.6726 30.217 45.5512C30.6067 44.4725 30.6392 43.3045 30.3099 42.2072C29.9804 41.1088 29.3043 40.1352 28.3748 39.4204C27.1097 38.4199 25.6318 37.697 24.0448 37.3026ZM19.6571 41.1313C19.7094 41.1168 19.7622 41.1034 19.8151 41.0908C21.5467 40.8296 23.3184 41.1777 24.8038 42.0709C25.4585 42.5079 25.7266 42.9934 25.7727 43.4605C25.8202 43.9415 25.638 44.4627 25.272 44.9638C24.5802 45.9102 23.318 46.6678 22.1777 46.809C21.3465 44.9717 20.5024 43.0601 19.6571 41.1313Z" fill="#3A3B7B"/>
<path d="M34.5982 33.9396C36.4833 33.104 38.8184 32.9597 40.6456 33.5472C41.1058 33.6759 41.5051 33.9541 41.7751 34.3344C42.0434 34.7123 42.1672 35.1678 42.1259 35.6231C42.1232 35.9186 42.0476 36.2094 41.9054 36.4717C41.7606 36.7388 41.551 36.9684 41.2942 37.1414C41.0375 37.3142 40.7411 37.4253 40.4302 37.465C40.1192 37.5048 39.803 37.4721 39.508 37.3697L39.4855 37.3619L39.4644 37.3512C39.3135 37.2754 39.1532 37.2183 38.9873 37.1812L38.9769 37.1789C37.6915 36.8512 36.479 37.3942 36.0361 38.0613C35.8249 38.3794 35.7987 38.7005 35.9746 38.9926C36.163 39.3054 36.6251 39.6564 37.5601 39.9066C37.8173 39.9744 38.0809 40.0398 38.3483 40.1062C39.0876 40.29 39.856 40.4808 40.599 40.7454L40.6018 40.7464C44.0296 41.9982 45.306 44.5907 44.869 47.029C44.4368 49.4404 42.3386 51.6349 39.1833 52.1525C38.0351 52.3968 36.8402 52.3492 35.7169 52.0145C34.5908 51.6788 33.5758 51.0662 32.7726 50.2374L32.7516 50.2157C32.4981 49.9035 32.3276 49.5366 32.252 49.1473C32.1824 48.7961 32.2191 48.433 32.3574 48.101C32.4949 47.7709 32.7275 47.4853 33.0276 47.2771C33.3446 47.0412 33.7268 46.8996 34.1269 46.8701C34.5256 46.8407 34.9245 46.9238 35.2746 47.1092C35.6243 47.2713 35.9495 47.4781 36.2415 47.7241L36.247 47.7286C36.7634 48.1819 37.3883 48.3 37.9874 48.1906C38.5954 48.0796 39.167 47.7344 39.5347 47.2763C39.8999 46.8212 40.0466 46.2804 39.8725 45.7555C39.6974 45.2268 39.1709 44.6344 38.014 44.1392C37.7116 44.0159 37.3981 43.9165 37.0719 43.8198C36.9839 43.7937 36.8945 43.7677 36.804 43.7414C36.5628 43.6711 36.3146 43.5987 36.0713 43.519C35.9037 43.4641 35.7375 43.4122 35.5728 43.3607C35.1229 43.22 34.6841 43.0829 34.262 42.899C33.343 42.5988 32.5491 42.0222 31.9984 41.2546C31.4454 40.484 31.1672 39.5625 31.2051 38.6276C31.208 36.3494 32.703 34.7798 34.5982 33.9396Z" fill="#3A3B7B"/>
<path d="M58.4974 33.697C58.1319 33.5256 57.7277 33.4443 57.3213 33.4602C56.9148 33.4763 56.519 33.5891 56.1694 33.7888C55.822 33.9871 55.5311 34.2647 55.3227 34.597C55.1316 34.8769 54.9994 35.1898 54.9334 35.5184C54.8675 35.8468 54.8691 36.1842 54.938 36.5118C55.0061 36.9328 55.0816 37.3423 55.1561 37.746C55.2795 38.4142 55.3995 39.0674 55.4788 39.7333L55.4817 39.7502C55.6621 40.7946 55.7565 41.8508 55.7649 42.9093L55.7657 42.9244C55.8274 44.0675 55.4216 45.1883 54.6353 46.0491L54.6228 46.0644C54.367 46.3791 54.025 46.6192 53.6349 46.758C53.2449 46.8968 52.8225 46.9287 52.4146 46.8502C52.0068 46.7716 51.6299 46.5857 51.3259 46.3133C51.0218 46.0408 50.8025 45.6915 50.6931 45.3065C50.4594 44.4948 50.3242 43.66 50.2898 42.8188L50.6889 36.7205C50.6948 36.6409 50.7016 36.5591 50.7084 36.4766C50.7236 36.2914 50.7392 36.1028 50.7456 35.9268C50.755 35.6679 50.747 35.4016 50.6841 35.1496C50.6198 34.892 50.4974 34.647 50.2804 34.4383C50.0656 34.2317 49.7755 34.0794 49.4105 33.9756C48.7505 33.7923 48.1924 33.7981 47.7274 33.9875C47.2621 34.1769 46.9433 34.5286 46.7177 34.9349C46.4939 35.3377 46.35 35.8146 46.2413 36.2923C46.1606 36.6468 46.0957 37.0189 46.0341 37.3731C46.0127 37.4952 45.9919 37.615 45.9708 37.7314L45.9703 37.7348C45.6405 39.6773 45.5423 41.6496 45.6777 43.6134C45.7029 44.6746 45.9335 45.7222 46.3578 46.7025C46.8366 47.9675 47.7036 49.0634 48.8447 49.8457C49.9881 50.6297 51.3526 51.0616 52.7575 51.0844C54.1624 51.1072 55.5414 50.7198 56.7118 49.9736C57.8803 49.2284 58.786 48.1604 59.3089 46.9109C60.0403 45.3192 60.3838 43.5882 60.3129 41.8498C60.27 40.5806 60.198 39.3017 60.1264 38.0293C60.0912 37.4051 60.0562 36.7823 60.0247 36.1633C60.0089 35.5425 59.7957 34.9413 59.4135 34.4403C59.177 34.1235 58.8622 33.8681 58.4974 33.697Z" fill="#3A3B7B"/>
<path d="M71.4347 43.2592C71.3977 43.3044 71.3586 43.3512 71.3178 43.3998C71.0205 41.7537 70.7449 40.108 70.4689 38.4599C70.37 37.8686 70.2705 37.2747 70.1704 36.6826L70.1592 36.6166L70.1226 36.5595C70.0537 36.4521 70.0469 36.3467 70.0469 36.1221V36.0962L70.0427 36.0705C69.9681 35.6066 69.7495 35.1749 69.4155 34.8319C69.0825 34.4898 68.6499 34.2518 68.1741 34.1484C67.6992 34.036 67.2 34.0608 66.7396 34.2197C66.2803 34.3783 65.88 34.6633 65.5886 35.039C65.3464 35.3273 65.1477 35.6471 64.999 35.9887C64.6612 36.7248 64.3205 37.4627 63.9789 38.2026L63.973 38.2154C63.1202 40.0626 62.2615 41.9221 61.4279 43.7963L61.4253 43.8024C60.9136 45.0176 60.4911 46.2981 60.0701 47.5746C59.9861 47.8294 59.902 48.0841 59.8173 48.3381C59.6653 48.7409 59.5988 49.1688 59.6216 49.5966C59.594 49.9795 59.6894 50.3615 59.8954 50.6909C60.1055 51.0271 60.4201 51.2915 60.7949 51.4472C61.1921 51.6143 61.6362 51.6498 62.0569 51.548C62.4767 51.4464 62.8494 51.2139 63.1165 50.8869C63.4576 50.4842 63.751 50.045 63.9903 49.5797C64.6965 48.1932 65.3715 46.7899 66.0433 45.3926C66.3033 44.8522 66.5559 44.3681 66.8432 43.841C66.863 43.906 66.8831 43.9694 66.9039 44.0329C67.2051 45.3056 67.7135 46.5247 68.4104 47.6454C68.5422 47.8828 68.7259 48.0903 68.9488 48.2536C69.1744 48.4189 69.4348 48.5349 69.7119 48.5938C69.9889 48.6528 70.276 48.653 70.5531 48.5946C70.8299 48.5364 71.0911 48.4202 71.3168 48.2557L71.7636 47.9347L75.2313 45.1314L75.0262 46.3856C74.7447 48.1097 74.4654 49.8194 74.1687 51.5294C73.9745 52.2874 73.9747 53.0791 74.1695 53.8368C74.2538 54.2632 74.4687 54.6558 74.7866 54.9645C75.1073 55.2757 75.518 55.4871 75.9654 55.5715C76.4128 55.6557 76.8764 55.6091 77.2958 55.4373C77.7091 55.2682 78.0607 54.9853 78.3064 54.6248C78.8782 53.9439 79.234 53.1197 79.3318 52.2501C79.479 51.0221 79.6452 49.7773 79.8116 48.5329C80.0032 47.0986 80.1949 45.6647 80.3567 44.2583L80.3572 44.254C80.513 42.7145 80.5883 41.1687 80.5831 39.6219C80.6172 39.1331 80.4904 38.6462 80.2202 38.23C79.9491 37.8124 79.5476 37.4878 79.073 37.302C78.5794 37.0866 78.0268 37.029 77.4965 37.1379C76.9697 37.246 76.4929 37.5125 76.1351 37.8986C75.4955 38.4664 74.8955 39.0739 74.3389 39.7173L74.3352 39.7217C73.7275 40.4484 73.124 41.1893 72.5245 41.9256C72.1599 42.3731 71.7964 42.8195 71.4347 43.2592Z" fill="#3A3B7B"/>
</g>
<defs>
<clipPath id="clip0_1_988">
<rect width="47" height="29" fill="white" transform="scale(2)"/>
</clipPath>
</defs>
</svg>
