<svg width="82" height="54" viewBox="0 0 82 54" fill="none" xmlns="http://www.w3.org/2000/svg">
<g clip-path="url(#clip0_1_1004)">
<path d="M76.875 1.6875C76.875 2.61948 77.6398 3.375 78.5833 3.375H80.2917C81.2352 3.375 82 2.61948 82 1.6875C82 0.75552 81.2352 0 80.2917 0H78.5833C77.6398 0 76.875 0.75552 76.875 1.6875Z" fill="#212326"/>
<path d="M27.3333 54H35.6321L33.2162 51.6135C32.5755 50.9806 31.7064 50.625 30.8003 50.625H27.3333C14.1245 50.625 3.41667 40.0478 3.41667 27C3.41667 13.9523 14.1245 3.37501 27.3333 3.375H54.6667C67.8755 3.375 78.5833 13.9523 78.5833 27C78.5833 40.0478 67.8755 50.625 54.6667 50.625H44.4418C43.0825 50.625 41.779 50.0916 40.8178 49.1423L37.9875 46.3463C36.3856 44.764 34.2129 43.875 31.9475 43.875H27.3333C17.8984 43.875 10.25 36.3199 10.25 27C10.25 17.6801 17.8984 10.125 27.3333 10.125H54.6667C64.1016 10.125 71.75 17.6801 71.75 27C71.75 36.3199 64.1016 43.875 54.6667 43.875H48.1013C46.742 43.875 45.4385 43.3416 44.4773 42.3923L41.6468 39.5963C40.045 38.014 37.8724 37.125 35.607 37.125H27.3333C21.6725 37.125 17.0833 32.5918 17.0833 27C17.0833 21.4082 21.6725 16.875 27.3333 16.875H54.6667C60.3275 16.875 64.9167 21.4082 64.9167 27C64.9167 32.5237 60.4388 37.0143 54.8733 37.123L54.8722 37.125H52.3722C51.0129 37.125 49.7094 36.5916 48.7482 35.6423L45.9177 32.8463C44.6034 31.5479 42.9047 30.7164 41.0858 30.4598L41 30.375H27.3333C25.4464 30.375 23.9167 28.8639 23.9167 27C23.9167 25.1361 25.4464 23.625 27.3333 23.625H54.6667C56.5536 23.625 58.0833 25.1361 58.0833 27C58.0833 28.8639 56.5536 30.375 54.6667 30.375H47.8333L50.2493 32.7615C50.89 33.3944 51.7591 33.75 52.6652 33.75H54.6667C58.4406 33.75 61.5 30.7279 61.5 27C61.5 23.2721 58.4406 20.25 54.6667 20.25H27.3333C23.5594 20.25 20.5 23.2721 20.5 27C20.5 30.7279 23.5594 33.75 27.3333 33.75H39.8778C41.2371 33.75 42.5406 34.2834 43.5018 35.2327L46.3323 38.0287C47.9342 39.611 50.1068 40.5 52.3722 40.5H55.5208V40.4741C62.6708 40.0386 68.3333 34.1724 68.3333 27C68.3333 19.5442 62.2145 13.5 54.6667 13.5H27.3333C19.7855 13.5 13.6667 19.5442 13.6667 27C13.6667 34.4559 19.7855 40.5 27.3333 40.5H35.607C36.9663 40.5 38.2698 41.0334 39.231 41.9827L42.0615 44.7787C43.6634 46.361 45.8359 47.25 48.1013 47.25H54.6667C65.9885 47.25 75.1667 38.1838 75.1667 27C75.1667 15.8162 65.9885 6.75 54.6667 6.75H27.3333C16.0115 6.75 6.83333 15.8162 6.83333 27C6.83333 38.1838 16.0115 47.25 27.3333 47.25H31.9475C33.3068 47.25 34.6103 47.7834 35.5715 48.7327L38.402 51.5287C40.0038 53.111 42.1764 54 44.4418 54H54.6667C69.7625 54 82 41.9117 82 27C82 12.0883 69.7625 -1.30362e-06 54.6667 0L27.3333 5.57906e-06C12.2375 6.88269e-06 -1.31971e-06 12.0883 0 27C1.31971e-06 41.9117 12.2376 54 27.3333 54Z" fill="#212326"/>
</g>
<defs>
<clipPath id="clip0_1_1004">
<rect width="41" height="27" fill="white" transform="scale(2)"/>
</clipPath>
</defs>
</svg>
