<svg width="80" height="56" viewBox="0 0 80 56" fill="none" xmlns="http://www.w3.org/2000/svg">
<g clip-path="url(#clip0_1_981)">
<path fill-rule="evenodd" clip-rule="evenodd" d="M19.9716 8.22923L0 28C3.99468 31.9546 8.55798 35.2874 13.5333 37.8948C14.9085 41.506 17.0641 44.8926 20 47.799C31.0458 58.7336 48.9544 58.7336 60 47.799C62.936 44.8926 65.0916 41.506 66.4668 37.8946C71.442 35.2874 76.0054 31.9546 80 28L60.0446 8.24532C60.0298 8.23054 60.015 8.21575 60 8.20099C48.9544 -2.73367 31.0458 -2.73367 20 8.20099C19.9905 8.21041 19.981 8.21981 19.9716 8.22923ZM58.089 41.4618C52.269 43.4062 46.1594 44.402 40 44.402C33.8406 44.402 27.7312 43.4062 21.9112 41.4618C22.5418 42.29 23.238 43.0848 24 43.8392C32.8366 52.587 47.1634 52.587 56 43.8392C56.762 43.0848 57.4584 42.29 58.089 41.4618ZM24.4102 11.7648C25.9108 12.7462 27.5064 13.586 29.176 14.2707C32.6076 15.6778 36.2856 16.4021 40 16.4021C43.7144 16.4021 47.3924 15.6778 50.824 14.2707C52.4936 13.586 54.0892 12.7462 55.59 11.7648C46.8636 3.54506 33.1364 3.54508 24.4102 11.7648Z" fill="#3B4158"/>
</g>
<defs>
<clipPath id="clip0_1_981">
<rect width="40" height="28" fill="white" transform="scale(2)"/>
</clipPath>
</defs>
</svg>
