<svg width="110" height="60" viewBox="0 0 110 60" fill="none" xmlns="http://www.w3.org/2000/svg">
<path d="M109.991 21.3393C110.003 21.2559 110.003 21.1716 109.991 21.0882C110.002 21.0203 110.002 20.951 109.991 20.8829L109.177 15.0175C109.059 14.3158 108.745 13.66 108.269 13.1233L108.129 12.9636L107.873 12.7125L93.7658 0.79935L94.1615 1.18736C93.8378 0.80759 93.4314 0.503828 92.9722 0.298445C92.5129 0.0930606 92.0124 -0.00872505 91.5078 0.000596127H87.2243C86.5278 -0.0129332 85.8472 0.204171 85.2922 0.616803C84.7093 0.206657 84.0076 -0.00933718 83.2902 0.000596127H79.0067C78.445 -0.00833946 77.8908 0.128347 77.4003 0.396857C76.9097 0.665366 76.5003 1.05616 76.2133 1.52967C75.7709 2.20598 75.6047 3.02082 75.7477 3.81189L76.2832 7.50906C75.9284 7.31193 75.5269 7.20964 75.1192 7.21241H54.3774C53.6332 7.21698 52.9062 7.43082 52.2822 7.82858C51.6789 8.1988 51.1946 8.72894 50.8855 9.35765L49.2792 8.01115C48.647 7.43769 47.8126 7.12686 46.9514 7.14393H14.4071C13.6602 7.15727 12.93 7.3618 12.2887 7.7373C11.4114 8.24073 10.7684 9.05929 10.4962 10.0195L0.160233 43.9104C-0.0328903 44.4688 -0.0518884 45.0711 0.105672 45.6402C0.263233 46.2091 0.590217 46.7194 1.04485 47.1055C1.16332 47.2039 1.2877 47.2955 1.41733 47.3793C1.41733 47.3793 1.20778 47.2423 1.09138 47.1283L15.1986 59.0643C15.7954 59.603 16.5756 59.904 17.3867 59.9086H50.1872C50.9363 59.8896 51.667 59.6771 52.3056 59.2924C52.6668 59.099 52.9899 58.8439 53.26 58.5393L53.3764 58.3796L53.5627 58.1514L53.7023 57.9003L55.2388 59.2012C55.827 59.7184 56.5903 60.003 57.3804 60H90.2506C90.9989 59.9756 91.7282 59.7634 92.369 59.3838C92.7221 59.1784 93.0434 58.9248 93.3235 58.6307L93.4398 58.4709L93.626 58.2427C93.725 58.0983 93.8109 57.9456 93.8821 57.7862C93.9582 57.6479 94.0205 57.5027 94.0683 57.3526L103.496 26.4059V26.132C103.508 26.0258 103.508 25.9186 103.496 25.8125V25.6071C103.508 25.539 103.508 25.4697 103.496 25.4016C103.507 25.2573 103.507 25.1124 103.496 24.9679H106.523C106.786 24.9916 107.051 24.9916 107.314 24.9679H107.524C107.694 24.9181 107.858 24.8491 108.013 24.7626H108.245L108.664 24.4431L108.851 24.3061L109.177 23.8953V23.7585L109.409 23.3705C109.396 23.295 109.396 23.2178 109.409 23.1423C109.397 23.1052 109.397 23.0652 109.409 23.0282C109.459 22.8944 109.498 22.757 109.526 22.6173C109.515 22.5723 109.515 22.5254 109.526 22.4804C109.514 22.4124 109.514 22.343 109.526 22.275C109.526 22.275 109.991 21.3849 109.991 21.3393Z" fill="black"/>
</svg>
