<svg width="104" height="40" viewBox="0 0 104 40" fill="none" xmlns="http://www.w3.org/2000/svg">
<g clip-path="url(#clip0_1_1008)">
<path d="M24.6863 0C20.6248 0 16.7297 1.6134 13.8579 4.48528L4.48528 13.8579C1.6134 16.7297 0 20.6248 0 24.6863C0 33.1439 6.85619 40 15.3137 40C19.3752 40 23.2703 38.3865 26.1421 35.5147L32.6252 29.0316C32.6252 29.0315 32.6253 29.0317 32.6252 29.0316L51.5147 10.1421C52.8863 8.77055 54.7465 8 56.6863 8C59.9337 8 62.6869 10.1165 63.6415 13.0454L69.6029 7.08395C66.8833 2.82445 62.1147 0 56.6863 0C52.6248 0 48.7297 1.6134 45.8579 4.48528L20.4853 29.8579C19.1137 31.2295 17.2535 32 15.3137 32C11.2745 32 8 28.7256 8 24.6863C8 22.7465 8.77055 20.8863 10.1421 19.5147L19.5147 10.1421C20.8863 8.77055 22.7465 8 24.6863 8C27.9339 8 30.6869 10.1166 31.6415 13.0456L37.6031 7.08409C34.8835 2.82453 30.1148 0 24.6863 0Z" fill="#394149"/>
<path d="M52.4854 29.8579C51.1138 31.2295 49.2536 32 47.3138 32C44.0668 32 41.3138 29.884 40.359 26.9556L34.3977 32.9169C37.1174 37.1759 41.8858 40 47.3138 40C51.3753 40 55.2704 38.3865 58.1422 35.5147L83.5148 10.1421C84.8864 8.77055 86.7466 8 88.6864 8C92.7257 8 96.0001 11.2745 96.0001 15.3137C96.0001 17.2535 95.2296 19.1137 93.858 20.4853L84.4854 29.8579C83.1138 31.2295 81.2536 32 79.3138 32C76.0665 32 73.3134 29.8836 72.3588 26.9549L66.3974 32.9164C69.117 37.1757 73.8856 40 79.3138 40C83.3753 40 87.2704 38.3865 90.1422 35.5147L99.5148 26.1421C102.387 23.2703 104 19.3752 104 15.3137C104 6.85619 97.144 0 88.6864 0C84.6249 0 80.7298 1.6134 77.858 4.48528L52.4854 29.8579Z" fill="#394149"/>
</g>
<defs>
<clipPath id="clip0_1_1008">
<rect width="52" height="20" fill="white" transform="scale(2)"/>
</clipPath>
</defs>
</svg>
