<svg width="110" height="60" viewBox="0 0 110 60" fill="none" xmlns="http://www.w3.org/2000/svg">
<g clip-path="url(#clip0_1_984)">
<path d="M109.991 21.3393C110.003 21.2559 110.003 21.1716 109.991 21.0882C110.002 21.0203 110.002 20.951 109.991 20.8829L109.177 15.0175C109.059 14.3158 108.745 13.66 108.269 13.1233L108.129 12.9636L107.873 12.7125L93.7658 0.79935L94.1615 1.18736C93.8378 0.80759 93.4314 0.503828 92.9722 0.298445C92.5129 0.0930606 92.0124 -0.00872505 91.5078 0.000596127H87.2243C86.5278 -0.0129332 85.8472 0.204171 85.2922 0.616803C84.7093 0.206657 84.0076 -0.00933718 83.2902 0.000596127H79.0067C78.445 -0.00833946 77.8908 0.128347 77.4003 0.396857C76.9097 0.665366 76.5003 1.05616 76.2133 1.52967C75.7709 2.20598 75.6047 3.02082 75.7477 3.81189L76.2832 7.50906C75.9284 7.31193 75.5269 7.20964 75.1192 7.21241H54.3774C53.6332 7.21698 52.9062 7.43082 52.2822 7.82858C51.6789 8.1988 51.1946 8.72894 50.8855 9.35765L49.2792 8.01115C48.647 7.43769 47.8126 7.12686 46.9514 7.14393H14.4071C13.6602 7.15727 12.93 7.3618 12.2887 7.7373C11.4114 8.24073 10.7684 9.05929 10.4962 10.0195L0.160233 43.9104C-0.0328903 44.4688 -0.0518884 45.0711 0.105672 45.6402C0.263233 46.2091 0.590217 46.7194 1.04485 47.1055C1.16332 47.2039 1.2877 47.2955 1.41733 47.3793C1.41733 47.3793 1.20778 47.2423 1.09138 47.1283L15.1986 59.0643C15.7954 59.603 16.5756 59.904 17.3867 59.9086H50.1872C50.9363 59.8896 51.667 59.6771 52.3056 59.2924C52.6668 59.099 52.9899 58.8439 53.26 58.5393L53.3764 58.3796L53.5627 58.1514L53.7023 57.9003L55.2388 59.2012C55.827 59.7184 56.5903 60.003 57.3804 60H90.2506C90.9989 59.9756 91.7282 59.7634 92.369 59.3838C92.7221 59.1784 93.0434 58.9248 93.3235 58.6307L93.4398 58.4709L93.626 58.2427C93.725 58.0983 93.8109 57.9456 93.8821 57.7862C93.9582 57.6479 94.0205 57.5027 94.0683 57.3526L103.496 26.4059V26.132C103.508 26.0258 103.508 25.9186 103.496 25.8125V25.6071C103.508 25.539 103.508 25.4697 103.496 25.4016C103.507 25.2573 103.507 25.1124 103.496 24.9679H106.523C106.786 24.9916 107.051 24.9916 107.314 24.9679H107.524C107.694 24.9181 107.858 24.8491 108.013 24.7626H108.245L108.664 24.4431L108.851 24.3061L109.177 23.8953V23.7585L109.409 23.3705C109.396 23.295 109.396 23.2178 109.409 23.1423C109.397 23.1052 109.397 23.0652 109.409 23.0282C109.459 22.8944 109.498 22.757 109.526 22.6173C109.515 22.5723 109.515 22.5254 109.526 22.4804C109.514 22.4124 109.514 22.343 109.526 22.275C109.526 22.275 109.991 21.3849 109.991 21.3393Z" fill="black"/>
<path d="M47.9057 9.74569C48.0293 9.85525 48.1157 9.99931 48.1531 10.1585C48.1907 10.3176 48.1774 10.4842 48.1153 10.6357L37.8027 44.5038C37.6728 44.8735 37.4072 45.1827 37.0578 45.3711C36.7734 45.5575 36.4444 45.6676 36.1032 45.6906H3.3262C3.04628 45.6774 2.78109 45.5637 2.58126 45.3711C2.46238 45.2632 2.37895 45.1231 2.34163 44.9688C2.3043 44.8143 2.31482 44.6524 2.37176 44.5038L12.7077 10.6357C12.8268 10.2613 13.0841 9.94392 13.4294 9.74569C13.7184 9.57262 14.0459 9.47082 14.3838 9.44899H47.1608C47.4385 9.45162 47.7048 9.5577 47.9057 9.74569ZM30.7955 37.68L36.9646 17.4595H19.6915L13.5457 37.68H30.7955ZM79.1929 10.088C79.3048 10.2154 79.4446 10.3165 79.6018 10.3836C79.759 10.4508 79.9295 10.4824 80.1009 10.476H84.361C84.5232 10.4775 84.683 10.4385 84.8257 10.3627C84.9683 10.2868 85.0886 10.1766 85.1757 10.0424C85.2514 9.93754 85.3048 9.81888 85.3328 9.69342C85.3607 9.56797 85.3627 9.4383 85.3386 9.31207L84.5006 3.28702C84.4209 3.00817 84.2775 2.75068 84.0817 2.53389C83.9697 2.40648 83.8301 2.30544 83.6729 2.23827C83.5156 2.1711 83.345 2.13954 83.1737 2.14591H78.9137C78.7514 2.14437 78.5915 2.18337 78.4489 2.25924C78.3064 2.33511 78.1858 2.44534 78.0989 2.57955C77.9359 2.89905 77.8661 3.10444 77.9359 3.28702L78.7973 9.31207C78.8414 9.60544 78.9801 9.87729 79.1929 10.088ZM92.7182 3.24138C92.6383 2.96251 92.495 2.70502 92.2991 2.48824C92.192 2.3613 92.0564 2.26029 91.903 2.193C91.7496 2.12572 91.5825 2.09398 91.4146 2.10027H87.1311C86.9716 2.09581 86.8138 2.13376 86.6745 2.2101C86.5351 2.28643 86.4195 2.39833 86.3397 2.53389C86.1848 2.73636 86.1178 2.99068 86.1535 3.24138L87.0147 9.26641C87.0688 9.55669 87.206 9.82585 87.4106 10.0424C87.5244 10.1673 87.6645 10.2666 87.8212 10.3336C87.978 10.4005 88.1474 10.4335 88.3184 10.4303H92.6018C92.761 10.4324 92.9177 10.3934 93.0566 10.3173C93.1956 10.2412 93.3118 10.1307 93.3933 9.99673C93.4743 9.89463 93.5308 9.77601 93.5591 9.64965C93.5874 9.52329 93.5863 9.39235 93.5562 9.26641L92.7182 3.24138ZM75.445 12.3702L75.0259 9.40335H54.3774C54.0532 9.42087 53.7396 9.52333 53.4694 9.70003C53.298 9.7917 53.1488 9.91875 53.0322 10.0724C52.9158 10.2261 52.8347 10.4027 52.7945 10.5901L51.0718 16.2499C51.003 16.3914 50.9795 16.5501 51.0044 16.7049C51.0294 16.8597 51.1015 17.0034 51.2114 17.1172C51.4077 17.2981 51.6639 17.4036 51.9331 17.4139H77.0281L70.8591 37.6344H45.8339C45.5113 37.6416 45.197 37.7364 44.9261 37.9081C44.5969 38.1132 44.3564 38.4301 44.251 38.7982L42.505 44.4582C42.4481 44.6034 42.4331 44.7612 42.4618 44.9142C42.4907 45.0673 42.5619 45.2095 42.6679 45.3253C42.8581 45.5184 43.1163 45.6327 43.3896 45.6448H76.2598C76.5997 45.6162 76.9274 45.5065 77.2142 45.3253C77.5579 45.136 77.8158 44.8263 77.9359 44.4582L87.3872 13.5113H76.7487C76.5798 13.5146 76.4122 13.4839 76.2561 13.4211C76.1 13.3583 75.9586 13.2647 75.8409 13.1462C75.6483 12.9392 75.5122 12.688 75.445 12.4159V12.3702Z" fill="white"/>
</g>
<defs>
<clipPath id="clip0_1_984">
<rect width="55" height="30" fill="white" transform="scale(2)"/>
</clipPath>
</defs>
</svg>
