<svg width="223" height="42" viewBox="0 0 223 42" fill="none" xmlns="http://www.w3.org/2000/svg">
<path d="M34.0683 0V40.7308H26.6301L8.90986 15.095H8.61154V40.7308H0V0H7.55747L25.1385 25.6158H25.4965V0H34.0683Z" fill="#263238"/>
<path d="M54.9458 41.3274C51.8035 41.3274 49.0987 40.691 46.8314 39.4182C44.5775 38.1321 42.8406 36.3156 41.6208 33.9688C40.401 31.6088 39.7911 28.8178 39.7911 25.596C39.7911 22.4536 40.401 19.6958 41.6208 17.3225C42.8406 14.9492 44.5576 13.0996 46.7718 11.7737C48.9992 10.4479 51.6112 9.78493 54.6077 9.78493C56.623 9.78493 58.4991 10.1098 60.236 10.7594C61.9862 11.3959 63.5109 12.3571 64.8103 13.6432C66.1229 14.9293 67.1438 16.5469 67.873 18.4959C68.6022 20.4317 68.9669 22.6989 68.9669 25.2976V27.6245H43.172V22.3741H60.9918C60.9918 21.1543 60.7266 20.0737 60.1962 19.1323C59.6659 18.191 58.93 17.4551 57.9886 16.9248C57.0605 16.3811 55.98 16.1093 54.7469 16.1093C53.4608 16.1093 52.3206 16.4077 51.3261 17.0043C50.345 17.5877 49.576 18.3766 49.0191 19.371C48.4623 20.3521 48.1772 21.446 48.1639 22.6525V27.6444C48.1639 29.1559 48.4424 30.4619 48.9992 31.5624C49.5694 32.6628 50.3715 33.5114 51.4057 34.108C52.4399 34.7047 53.6663 35.003 55.085 35.003C56.0264 35.003 56.8882 34.8704 57.6704 34.6052C58.4527 34.3401 59.1223 33.9423 59.6791 33.412C60.236 32.8816 60.6603 32.2319 60.952 31.4629L68.7879 31.98C68.3901 33.8628 67.5747 35.5068 66.3416 36.9123C65.1218 38.3044 63.5441 39.3916 61.6083 40.1739C59.6858 40.9429 57.4649 41.3274 54.9458 41.3274Z" fill="#263238"/>
<path d="M81.029 10.1827L86.6374 20.8626L92.3851 10.1827H101.076L92.226 25.4567L101.315 40.7308H92.6635L86.6374 30.1702L80.7108 40.7308H71.96L81.029 25.4567L72.2782 10.1827H81.029Z" fill="#263238"/>
<path d="M118.816 41.3274C115.687 41.3274 112.996 40.6645 110.742 39.3386C108.501 37.9995 106.777 36.1433 105.571 33.7699C104.378 31.3966 103.781 28.6653 103.781 25.5761C103.781 22.447 104.384 19.7025 105.591 17.3424C106.811 14.9691 108.541 13.1195 110.782 11.7936C113.022 10.4545 115.687 9.78493 118.777 9.78493C121.442 9.78493 123.775 10.2689 125.777 11.2368C127.779 12.2046 129.364 13.5637 130.53 15.3138C131.697 17.064 132.34 19.1191 132.46 21.4791H124.465C124.239 19.9544 123.642 18.7279 122.675 17.7998C121.72 16.8585 120.467 16.3878 118.916 16.3878C117.603 16.3878 116.456 16.7458 115.475 17.4617C114.507 18.1644 113.751 19.192 113.208 20.5444C112.664 21.8968 112.392 23.5342 112.392 25.4567C112.392 27.4058 112.658 29.0631 113.188 30.4288C113.732 31.7944 114.494 32.8352 115.475 33.5512C116.456 34.2671 117.603 34.6251 118.916 34.6251C119.884 34.6251 120.752 34.4263 121.521 34.0285C122.303 33.6307 122.946 33.054 123.45 32.2982C123.967 31.5292 124.305 30.6077 124.465 29.5338H132.46C132.327 31.8673 131.691 33.9224 130.55 35.6991C129.423 37.4625 127.865 38.8414 125.877 39.8358C123.888 40.8302 121.534 41.3274 118.816 41.3274Z" fill="#263238"/>
<path d="M151.806 41.3274C148.663 41.3274 145.959 40.691 143.691 39.4182C141.437 38.1321 139.7 36.3156 138.481 33.9688C137.261 31.6088 136.651 28.8178 136.651 25.596C136.651 22.4536 137.261 19.6958 138.481 17.3225C139.7 14.9492 141.417 13.0996 143.632 11.7737C145.859 10.4479 148.471 9.78493 151.468 9.78493C153.483 9.78493 155.359 10.1098 157.096 10.7594C158.846 11.3959 160.371 12.3571 161.67 13.6432C162.983 14.9293 164.004 16.5469 164.733 18.4959C165.462 20.4317 165.827 22.6989 165.827 25.2976V27.6245H140.032V22.3741H157.852C157.852 21.1543 157.586 20.0737 157.056 19.1323C156.526 18.191 155.79 17.4551 154.849 16.9248C153.92 16.3811 152.84 16.1093 151.607 16.1093C150.321 16.1093 149.18 16.4077 148.186 17.0043C147.205 17.5877 146.436 18.3766 145.879 19.371C145.322 20.3521 145.037 21.446 145.024 22.6525V27.6444C145.024 29.1559 145.302 30.4619 145.859 31.5624C146.429 32.6628 147.231 33.5114 148.266 34.108C149.3 34.7047 150.526 35.003 151.945 35.003C152.886 35.003 153.748 34.8704 154.53 34.6052C155.313 34.3401 155.982 33.9423 156.539 33.412C157.096 32.8816 157.52 32.2319 157.812 31.4629L165.648 31.98C165.25 33.8628 164.435 35.5068 163.202 36.9123C161.982 38.3044 160.404 39.3916 158.468 40.1739C156.546 40.9429 154.325 41.3274 151.806 41.3274Z" fill="#263238"/>
<path d="M179.828 23.0702V40.7308H171.356V10.1827H179.43V15.5724H179.788C180.464 13.7957 181.598 12.3903 183.189 11.3561C184.78 10.3087 186.709 9.78493 188.976 9.78493C191.098 9.78493 192.947 10.249 194.525 11.1771C196.103 12.1052 197.329 13.4311 198.205 15.1547C199.08 16.8651 199.517 18.9069 199.517 21.2802V40.7308H191.045V22.7917C191.058 20.9223 190.581 19.4638 189.613 18.4164C188.645 17.3557 187.312 16.8253 185.615 16.8253C184.475 16.8253 183.467 17.0706 182.592 17.5612C181.731 18.0517 181.054 18.7677 180.564 19.7091C180.086 20.6372 179.841 21.7576 179.828 23.0702Z" fill="#263238"/>
<path d="M222.443 10.1827V16.5469H204.047V10.1827H222.443ZM208.223 2.86388H216.695V31.3436C216.695 32.1259 216.815 32.7358 217.053 33.1733C217.292 33.5976 217.624 33.8959 218.048 34.0683C218.485 34.2406 218.989 34.3268 219.559 34.3268C219.957 34.3268 220.355 34.2937 220.753 34.2274C221.15 34.1478 221.455 34.0882 221.667 34.0484L223 40.3529C222.576 40.4855 221.979 40.638 221.21 40.8103C220.441 40.9959 219.506 41.1087 218.406 41.1484C216.364 41.228 214.574 40.9562 213.036 40.333C211.511 39.7098 210.325 38.742 209.476 37.4294C208.628 36.1167 208.21 34.4594 208.223 32.4573V2.86388Z" fill="#263238"/>
</svg>
