<svg width="112" height="18" viewBox="0 0 112 18" fill="none" xmlns="http://www.w3.org/2000/svg">
<path d="M12.5 2.09351H0.5V5.25892H12.5V2.09351Z" fill="#263238"/>
<path d="M10.6562 9.82927V17.2439H7.48437V9.82927H0.5V6.66386H7.48437V6.64568H10.6562V6.66386H14.5V9.82927H10.6562Z" fill="#263238"/>
<path d="M21.4766 17.2439V2.09351H28.168C30.8555 2.09351 32.2617 3.66113 32.2617 5.85365C32.2617 8.0644 30.8555 9.61384 28.168 9.61384H24.6484V17.2439H21.4766ZM24.6484 6.44847H27.5586C28.1328 6.44847 29.0898 6.26569 29.0898 5.87184C29.0898 5.47798 28.1328 5.2952 27.5586 5.2952H24.6484V6.44847Z" fill="#263238"/>
<path d="M43.6797 17.2439V11.0189H38.332V17.2439H35.1602V2.09351H38.332V7.85365H43.6797V2.09351H46.8516V17.2439H43.6797Z" fill="#263238"/>
<path d="M61.1172 17.2439V2.09351H64.3073V17.2439H61.1172Z" fill="#263238"/>
<path d="M78.5078 17.2439L77.4961 14.8232H72.6211L71.6094 17.2439H68.3281L73.3945 2.09351H76.7227L81.7891 17.2439H78.5078ZM73.6328 11.6763H76.4844L75.0586 7.18232L73.6328 11.6763Z" fill="#263238"/>
<path d="M92.7578 17.2439V10.9644C92.7578 10.5342 92.7578 10.1038 92.7578 9.69172C92.4648 10.1765 92.0521 10.6068 91.6758 11.0007L88.4766 14.8232V17.2439H85.3047V14.8232L82.1055 11.0007C81.7474 10.6068 81.3164 10.1765 81.0234 9.69172C81.0234 10.1038 81.0234 10.5342 81.0234 10.9644V17.2439H77.8516V2.09351H81.0234L87.875 10.2567L94.7266 2.09351H97.8984V17.2439H94.7266H92.7578Z" fill="#263238"/>
<path d="M108.82 17.2439V5.25892H104V2.09351H116.5V5.25892H111.68V17.2439H108.82Z" fill="#263238"/>
</svg>