<svg width="884" height="866" viewBox="0 0 884 866" fill="none" xmlns="http://www.w3.org/2000/svg">
<path d="M441.533 761.99C630.655 761.99 783.968 753.039 783.968 741.997C783.968 730.956 630.655 722.005 441.533 722.005C252.411 722.005 99.0977 730.956 99.0977 741.997C99.0977 753.039 252.411 761.99 441.533 761.99Z" fill="#F5F5F5"/>
<path d="M616.821 295.502L599.301 288.437C599.301 288.437 576.183 330.595 569.56 332.732C560.552 335.628 541.902 343.682 530.846 345.095C529.345 346.861 526.89 352.353 527.12 354.349C541.973 359.312 574.611 352.724 581.605 347.532C597.518 335.752 616.821 295.502 616.821 295.502Z" fill="#E58A7B"/>
<path d="M622.208 285.911C625.475 297.974 607.779 322.241 607.779 322.241L584.59 309.242C584.59 309.242 588.934 299.263 594.233 289.108C602.728 272.701 618.482 272.153 622.208 285.911Z" fill="#4CAF4F"/>
<path opacity="0.2" d="M622.208 285.911C625.475 297.974 607.779 322.241 607.779 322.241L584.59 309.242C584.59 309.242 588.934 299.263 594.233 289.108C602.728 272.701 618.482 272.153 622.208 285.911Z" fill="black"/>
<path opacity="0.2" d="M593.791 314.435L602.922 319.556L604.529 291.528C599.213 295.608 595.469 307.9 593.791 314.435Z" fill="black"/>
<path d="M606.949 276.834C606.949 276.834 588.899 316.996 599.425 391.774H670.547C671.677 380.859 667.933 327.592 681.479 276.163C673.677 274.638 665.783 273.629 657.849 273.142C647.784 272.559 637.695 272.559 627.63 273.142C620.653 273.851 613.74 275.085 606.949 276.834Z" fill="#4CAF4F"/>
<path opacity="0.2" d="M606.949 276.834C606.949 276.834 588.899 316.996 599.425 391.774H670.547C671.677 380.859 667.933 327.592 681.479 276.163C673.677 274.638 665.783 273.629 657.849 273.142C647.784 272.559 637.695 272.559 627.63 273.142C620.653 273.851 613.74 275.085 606.949 276.834Z" fill="black"/>
<g style="mix-blend-mode:multiply">
<path d="M590.453 743.587C590.347 745.494 617.316 747.031 650.678 747.031C684.04 747.031 711.203 745.494 711.309 743.587C711.415 741.68 684.464 740.161 651.084 740.161C617.704 740.161 590.577 741.697 590.453 743.587Z" fill="#E8ECF1"/>
</g>
<path d="M637.928 693.469L625.313 698.352L636.179 726.422L648.794 721.539L637.928 693.469Z" fill="#E58A7B"/>
<path d="M694.178 730.005H680.879L676.005 699.222H689.303L694.178 730.005Z" fill="#E58A7B"/>
<path d="M679.961 728.469H694.902C695.161 728.47 695.412 728.562 695.609 728.73C695.806 728.899 695.938 729.131 695.979 729.387L697.905 741.203C697.945 741.499 697.921 741.801 697.835 742.087C697.749 742.374 697.602 742.638 697.404 742.863C697.206 743.087 696.962 743.266 696.689 743.388C696.416 743.51 696.12 743.572 695.82 743.569C690.61 743.481 688.103 743.163 681.532 743.163C677.488 743.163 669.17 743.587 663.553 743.587C657.937 743.587 657.566 738.077 659.88 737.564C670.265 735.321 674.291 732.266 677.753 729.299C678.363 728.763 679.148 728.468 679.961 728.469Z" fill="#263238"/>
<path d="M635.807 723.912L649.936 719.779C650.189 719.708 650.457 719.726 650.698 719.828C650.939 719.931 651.138 720.113 651.261 720.345L656.559 730.941C656.682 731.21 656.745 731.503 656.744 731.798C656.742 732.094 656.676 732.386 656.55 732.653C656.423 732.921 656.24 733.157 656.013 733.347C655.786 733.536 655.521 733.673 655.235 733.749C650.095 735.162 646.651 736.028 640.223 737.9C635.79 739.189 631.268 741.291 626.888 742.686C623.851 743.657 616.715 743.693 613.024 743.693C607.567 743.693 606.348 737.935 608.697 737.67C614.614 737.017 615.409 737.317 618.676 735.675C624.022 733.338 628.867 729.992 632.946 725.82C633.715 724.943 634.702 724.285 635.807 723.912Z" fill="#263238"/>
<path d="M533.071 345.024L518.448 338.896L512.425 355.109C518.419 356.022 524.517 356.022 530.511 355.109L533.071 345.024Z" fill="#E58A7B"/>
<path d="M507.569 338.472L507.18 349.245L512.425 355.073L518.448 338.86L507.569 338.472Z" fill="#E58A7B"/>
<path d="M639.658 695.853L627.005 700.738L632.608 715.253L645.262 710.368L639.658 695.853Z" fill="#CF6F64"/>
<path d="M689.303 699.222H676.005L678.53 715.099H691.829L689.303 699.222Z" fill="#CF6F64"/>
<path opacity="0.2" d="M597.164 371.551C597.429 374.748 597.73 378.015 598.118 381.371L650.996 364.204C659.254 361.757 666.43 356.567 671.342 349.492C671.554 344.777 671.819 339.814 672.225 334.639C672.402 332.131 672.614 329.553 672.843 326.939C673.073 324.325 673.391 321.428 673.726 318.638L597.164 371.551Z" fill="black"/>
<path d="M614.437 313.622L612.671 313.41C613.713 304.579 620.301 297.621 627.242 297.797V299.564C621.166 299.44 615.373 305.71 614.437 313.622Z" fill="white"/>
<path d="M623.851 329.923H623.55V328.157C629.626 328.387 635.33 322.046 636.267 314.152L638.033 314.364C637.097 323 630.721 329.923 623.851 329.923Z" fill="white"/>
<path d="M656.86 239.109C654.369 248.84 651.438 266.661 657.849 273.142C657.849 273.142 653.363 283.015 635.295 283.015C618.782 283.015 627.63 273.142 627.63 273.142C638.615 270.564 638.81 262.545 637.362 254.951L656.86 239.109Z" fill="#E58A7B"/>
<path d="M648.912 245.573L637.379 254.951C637.737 256.696 637.943 258.469 637.997 260.25C641.371 263.605 648.135 255.11 648.824 250.765C649.174 249.055 649.204 247.294 648.912 245.573Z" fill="#CF6F64"/>
<path d="M617.546 238.985C618.348 240.376 619.429 241.587 620.72 242.541C622.012 243.495 623.486 244.173 625.052 244.531C629.29 245.467 631.41 241.564 630.244 237.643C629.202 234.111 625.723 229.36 621.413 230.172C620.49 230.363 619.626 230.771 618.893 231.364C618.161 231.957 617.581 232.716 617.202 233.579C616.823 234.442 616.657 235.384 616.716 236.324C616.776 237.265 617.061 238.177 617.546 238.985Z" fill="#CF6F64"/>
<path d="M624.557 207.849C617.952 210.869 615.62 237.113 623.921 240.999C632.222 244.884 637.061 202.109 624.557 207.849Z" fill="#263238"/>
<path d="M658.873 224.468C657.283 237.643 657.107 245.396 650.042 252.143C647.853 254.382 645.088 255.972 642.052 256.738C639.016 257.505 635.827 257.417 632.838 256.485C629.849 255.553 627.175 253.813 625.112 251.458C623.049 249.102 621.678 246.222 621.148 243.136C619.011 231.303 621.961 211.752 635.172 206.506C637.947 205.282 641 204.822 644.013 205.175C647.026 205.528 649.89 206.68 652.308 208.512C654.726 210.345 656.609 212.79 657.764 215.596C658.918 218.401 659.301 221.464 658.873 224.468Z" fill="#E58A7B"/>
<path d="M637.167 214.666C646.952 212.176 654.14 210.48 651.561 218.622C648.153 229.501 644.055 240.027 649.548 240.504C652.903 240.804 667.739 234.517 665.849 228.141C664.207 222.596 671.148 221.077 672.384 218.269C676.958 208.096 663.871 209.438 666.202 203.257C668.534 197.075 655.606 187.114 648.541 192.077C637.044 200.095 617.316 199.972 627.683 186.779C635.119 177.365 621.855 179.29 621.855 179.29C621.855 179.29 629.873 184.041 616.38 191.388C602.11 199.23 615.197 220.3 637.167 214.666Z" fill="#263238"/>
<path d="M664.065 238.985C662.134 241.78 659.232 243.757 655.924 244.531C651.561 245.467 649.883 241.564 651.526 237.643C652.992 234.111 657.019 229.36 661.187 230.172C665.355 230.985 666.308 235.524 664.065 238.985Z" fill="#E58A7B"/>
<path d="M599.425 391.773C599.425 391.773 587.486 498.624 586.55 539.175C585.596 581.35 627.012 712.944 627.012 712.944L648.206 704.114C648.206 704.114 623.48 583.876 627.012 542.46C630.756 497.3 646.228 391.844 646.228 391.844L599.425 391.773Z" fill="#4CAF4F"/>
<path opacity="0.2" d="M629.096 421.109C619.577 440.854 625.988 479.903 631.145 503.04C633.105 486.703 635.436 468.971 637.644 452.564C637.432 427.343 635.472 407.863 629.096 421.109Z" fill="black"/>
<path d="M647.269 697.12C647.375 697.12 649.777 703.867 649.777 703.867L625.334 714.145L621.484 706.975L647.269 697.12Z" fill="#4CAF4F"/>
<path d="M624.663 391.773C624.663 391.773 633.794 493.397 639.834 531.457C646.475 573.155 672.508 712.026 672.508 712.026H696.862C696.862 712.026 682.274 576.528 679.519 535.236C676.517 490.447 670.547 391.773 670.547 391.773H624.663Z" fill="#4CAF4F"/>
<path d="M697.233 705.686C697.339 705.686 698.046 712.485 698.046 712.485H671.271L669.364 704.679L697.233 705.686Z" fill="#4CAF4F"/>
<path opacity="0.2" d="M687.908 697.632C687.853 697.633 687.799 697.614 687.757 697.578C687.715 697.542 687.687 697.492 687.679 697.438C687.537 696.202 674.38 573.809 671.907 536.72C669.223 496.487 663.818 407.245 663.765 406.344C663.763 406.315 663.766 406.285 663.776 406.258C663.785 406.23 663.801 406.204 663.821 406.183C663.841 406.161 663.865 406.144 663.892 406.132C663.919 406.12 663.948 406.114 663.977 406.115C664.035 406.114 664.091 406.136 664.134 406.175C664.176 406.215 664.202 406.269 664.207 406.326C664.207 407.227 669.664 496.399 672.349 536.702C674.821 573.791 687.979 696.096 688.102 697.42C688.107 697.449 688.106 697.479 688.099 697.508C688.092 697.537 688.079 697.564 688.06 697.587C688.042 697.61 688.019 697.629 687.993 697.643C687.967 697.657 687.938 697.665 687.908 697.668V697.632Z" fill="black"/>
<path d="M638.668 228.141C638.668 229.219 637.997 230.084 637.291 230.084C636.584 230.084 636.072 229.219 636.143 228.141C636.214 227.064 636.814 226.198 637.52 226.198C638.227 226.198 638.739 227.082 638.668 228.141Z" fill="#263238"/>
<path d="M626.553 228.141C626.553 229.219 625.864 230.084 625.175 230.084C624.486 230.084 623.957 229.219 624.01 228.141C624.063 227.064 624.698 226.198 625.405 226.198C626.111 226.198 626.623 227.082 626.553 228.141Z" fill="#263238"/>
<path d="M630.368 228.689C628.893 231.978 626.993 235.06 624.716 237.855C626.482 239.621 629.785 238.809 629.785 238.809L630.368 228.689Z" fill="#DF5753"/>
<path d="M630.686 243.312C630.645 243.312 630.604 243.304 630.566 243.288C630.529 243.272 630.495 243.248 630.467 243.218C630.439 243.189 630.417 243.153 630.403 243.115C630.389 243.076 630.383 243.035 630.385 242.995C630.39 242.909 630.427 242.828 630.49 242.769C630.552 242.709 630.635 242.676 630.721 242.677C632.072 242.686 633.407 242.393 634.63 241.818C635.852 241.243 636.931 240.402 637.785 239.356C637.847 239.303 637.925 239.273 638.006 239.273C638.087 239.273 638.166 239.303 638.227 239.356C638.284 239.416 638.316 239.495 638.316 239.577C638.316 239.659 638.284 239.739 638.227 239.798C637.312 240.909 636.16 241.802 634.855 242.41C633.55 243.018 632.125 243.327 630.686 243.312Z" fill="#263238"/>
<path d="M640.823 224.892C640.738 224.935 640.645 224.958 640.549 224.958C640.454 224.958 640.36 224.935 640.276 224.892C639.615 224.464 638.863 224.199 638.081 224.116C637.298 224.033 636.508 224.135 635.772 224.415C635.7 224.451 635.622 224.472 635.542 224.477C635.462 224.482 635.382 224.471 635.306 224.445C635.23 224.418 635.161 224.377 635.101 224.324C635.042 224.27 634.994 224.205 634.96 224.132C634.894 223.975 634.892 223.798 634.955 223.64C635.018 223.482 635.14 223.354 635.295 223.284C636.219 222.907 637.219 222.759 638.212 222.851C639.205 222.943 640.162 223.274 641 223.814C641.067 223.86 641.125 223.919 641.17 223.988C641.215 224.056 641.245 224.133 641.26 224.214C641.275 224.294 641.274 224.377 641.256 224.457C641.239 224.537 641.206 224.613 641.159 224.68C641.069 224.781 640.953 224.854 640.823 224.892Z" fill="#263238"/>
<path d="M621.873 221.36C621.778 221.337 621.693 221.288 621.625 221.218C621.567 221.161 621.52 221.092 621.488 221.016C621.456 220.94 621.44 220.859 621.44 220.777C621.44 220.694 621.456 220.613 621.488 220.537C621.52 220.461 621.567 220.393 621.625 220.335C622.302 219.576 623.145 218.983 624.089 218.603C625.032 218.224 626.051 218.067 627.065 218.145C627.146 218.158 627.224 218.187 627.294 218.231C627.363 218.274 627.423 218.332 627.469 218.4C627.516 218.468 627.548 218.545 627.563 218.625C627.579 218.706 627.577 218.789 627.559 218.869C627.522 219.033 627.425 219.177 627.289 219.274C627.152 219.372 626.985 219.416 626.818 219.399C626.015 219.349 625.212 219.481 624.468 219.787C623.725 220.093 623.06 220.565 622.526 221.165C622.446 221.255 622.342 221.32 622.227 221.354C622.111 221.389 621.989 221.39 621.873 221.36Z" fill="#263238"/>
<path d="M688.314 293.541L669.947 288.649C669.947 288.649 651.932 332.996 645.556 335.875C636.902 339.831 614.985 353.537 605.659 360.018C605.147 362.226 605.553 368.072 606.719 369.679C622.614 366.783 653.045 355.073 659.403 349.121C673.903 335.54 688.314 293.541 688.314 293.541Z" fill="#E58A7B"/>
<path d="M675.492 730.8C674.596 730.871 673.703 730.627 672.967 730.111C672.739 729.906 672.569 729.645 672.473 729.354C672.377 729.062 672.359 728.751 672.419 728.451C672.43 728.263 672.492 728.082 672.598 727.927C672.703 727.771 672.849 727.647 673.02 727.568C674.503 726.808 678.654 729.44 679.131 729.74C679.183 729.773 679.223 729.821 679.246 729.878C679.268 729.936 679.271 729.999 679.254 730.058C679.239 730.12 679.208 730.177 679.165 730.223C679.122 730.269 679.067 730.304 679.007 730.323C677.856 730.606 676.677 730.766 675.492 730.8ZM673.726 728.045C673.592 728.015 673.454 728.015 673.32 728.045C673.252 728.079 673.196 728.133 673.158 728.198C673.121 728.264 673.103 728.34 673.108 728.416C673.061 728.621 673.069 728.835 673.131 729.037C673.193 729.238 673.307 729.42 673.461 729.564C674.15 730.182 675.881 730.252 678.159 729.811C676.803 728.917 675.275 728.316 673.673 728.045H673.726Z" fill="#4CAF4F"/>
<path d="M678.919 730.323C678.873 730.338 678.823 730.338 678.777 730.323C677.453 729.581 674.962 726.667 675.333 725.184C675.389 724.948 675.522 724.739 675.711 724.588C675.9 724.438 676.134 724.355 676.375 724.354C676.612 724.322 676.853 724.342 677.082 724.412C677.311 724.482 677.521 724.601 677.7 724.76C679.166 726.014 679.254 729.864 679.254 730.058C679.263 730.116 679.252 730.175 679.223 730.227C679.194 730.278 679.149 730.318 679.095 730.341C679.036 730.353 678.974 730.347 678.919 730.323ZM676.552 724.936H676.428C676.022 724.936 675.969 725.166 675.952 725.254C675.74 726.12 677.311 728.327 678.618 729.369C678.612 727.877 678.15 726.423 677.294 725.201C677.089 725.022 676.824 724.928 676.552 724.936Z" fill="#4CAF4F"/>
<path d="M628.601 728.592C627.521 728.969 626.344 728.969 625.263 728.592C625.018 728.459 624.81 728.267 624.659 728.032C624.508 727.797 624.418 727.529 624.398 727.25C624.376 727.075 624.398 726.898 624.463 726.734C624.528 726.571 624.633 726.426 624.769 726.314C626.182 725.042 631.957 726.314 632.611 726.561C632.673 726.577 632.728 726.614 632.766 726.665C632.805 726.717 632.825 726.78 632.823 726.844C632.825 726.91 632.808 726.976 632.774 727.032C632.739 727.089 632.688 727.134 632.628 727.162C631.328 727.749 629.981 728.227 628.601 728.592ZM625.723 726.491C625.521 726.531 625.332 726.622 625.175 726.756C625.119 726.798 625.076 726.855 625.051 726.92C625.026 726.986 625.02 727.058 625.034 727.126C625.045 727.312 625.103 727.491 625.202 727.649C625.301 727.806 625.437 727.936 625.599 728.027C626.535 728.522 628.707 728.133 631.516 726.95C629.624 726.473 627.666 726.317 625.723 726.491Z" fill="#4CAF4F"/>
<path d="M632.575 727.162H632.434C630.668 726.844 627.136 724.813 627.03 723.294C627.03 722.941 627.189 722.446 628.036 722.164C628.323 722.062 628.627 722.019 628.93 722.037C629.234 722.055 629.53 722.134 629.803 722.27C631.71 723.206 632.717 726.597 632.77 726.756C632.782 726.809 632.78 726.865 632.765 726.917C632.749 726.97 632.721 727.018 632.681 727.056C632.655 727.099 632.619 727.136 632.575 727.162ZM628.39 722.694H628.213C627.665 722.888 627.665 723.117 627.665 723.188C627.665 724.106 630.226 725.784 632.01 726.349C631.599 724.931 630.73 723.689 629.538 722.817C629.183 722.637 628.774 722.593 628.39 722.694Z" fill="#4CAF4F"/>
<path d="M607.161 358.976L588.74 367.454L586.603 372.752L593.402 377.326C593.402 377.326 606.119 375.949 609.739 367.772L607.161 358.976Z" fill="#E58A7B"/>
<path d="M607.938 369.979C607.526 366.44 606.358 363.031 604.511 359.983L607.426 357.793C609.618 361.305 611.016 365.253 611.523 369.361L607.938 369.979Z" fill="#263238"/>
<path d="M611.082 361.484C611.471 362.097 611.662 362.814 611.629 363.539C611.597 364.265 611.341 364.962 610.898 365.537C610.455 366.111 609.845 366.536 609.152 366.752C608.459 366.968 607.717 366.965 607.025 366.744C606.334 366.523 605.727 366.094 605.288 365.517C604.849 364.939 604.599 364.239 604.571 363.514C604.543 362.789 604.74 362.073 605.134 361.463C605.528 360.853 606.1 360.38 606.772 360.107C607.527 359.722 608.403 359.651 609.21 359.909C610.017 360.167 610.69 360.733 611.082 361.484Z" fill="#263238"/>
<path d="M576.289 374.306L578.744 376.779L595.275 369.715L588.74 367.454L576.289 374.306Z" fill="#E58A7B"/>
<path opacity="0.2" d="M647.269 697.12C647.375 697.12 649.777 703.867 649.777 703.867L625.334 714.145L621.484 706.975L647.269 697.12Z" fill="black"/>
<path opacity="0.2" d="M697.233 705.686C697.339 705.686 698.046 712.485 698.046 712.485H671.271L669.364 704.679L697.233 705.686Z" fill="black"/>
<path d="M693.101 288.455C697.957 304.12 678.972 325.543 678.972 325.543L652.745 314.841C655.853 305.786 659.438 296.902 663.483 288.225C671.536 270.864 688.191 272.648 693.101 288.455Z" fill="#4CAF4F"/>
<path opacity="0.2" d="M693.101 288.455C697.957 304.12 678.972 325.543 678.972 325.543L652.745 314.841C655.853 305.786 659.438 296.902 663.483 288.225C671.536 270.864 688.191 272.648 693.101 288.455Z" fill="black"/>
<path d="M432.49 131.499H421.205V133.318H432.49V131.499Z" fill="#4CAF4F"/>
<path d="M578.581 203.498L577.216 233.809L579.033 233.891L580.399 203.58L578.581 203.498Z" fill="#4CAF4F"/>
<path d="M575.07 139.658H366.667L347.274 573.632H555.678L575.07 139.658Z" fill="#4CAF4F"/>
<path opacity="0.56" d="M568.853 145.628H360.45L341.058 579.602H549.461L568.853 145.628Z" fill="#FAFAFA"/>
<path opacity="0.07" d="M562.637 151.58H354.233L334.823 585.553H543.227L562.637 151.58Z" fill="#4CAF4F"/>
<path d="M538.917 340.856H361.033L359.549 374.059H537.434L538.917 340.856Z" fill="white"/>
<path d="M458.859 316.625H362.11L361.456 331.478H458.205L458.859 316.625Z" fill="#4CAF4F"/>
<path d="M534.908 430.469H357.024L355.54 463.673H533.425L534.908 430.469Z" fill="white"/>
<path opacity="0.47" d="M502.288 508.515H382.668L380.884 548.306H500.504L502.288 508.515Z" fill="#4CAF4F"/>
<path d="M494.287 554.487H374.667C374.615 554.501 374.56 554.501 374.508 554.487C374.491 554.436 374.491 554.38 374.508 554.328L376.274 514.52C376.274 514.493 376.28 514.466 376.291 514.441C376.301 514.416 376.317 514.394 376.337 514.376C376.357 514.357 376.381 514.343 376.407 514.335C376.432 514.326 376.459 514.323 376.486 514.325H496.106C496.128 514.314 496.153 514.309 496.177 514.309C496.202 514.309 496.226 514.314 496.248 514.325C496.26 514.347 496.267 514.371 496.267 514.396C496.267 514.421 496.26 514.445 496.248 514.467L494.517 554.364C494.496 554.405 494.462 554.439 494.421 554.461C494.38 554.483 494.334 554.492 494.287 554.487ZM374.879 554.063H494.075L495.841 514.679H376.645L374.879 554.063Z" fill="white"/>
<path d="M437.965 406.238H358.101L357.447 421.109H437.294L437.965 406.238Z" fill="#4CAF4F"/>
<path d="M500.009 233.599C499.553 243.262 496.117 252.547 490.172 260.179C485.772 265.944 480.109 270.624 473.619 273.86C467.128 277.096 459.982 278.802 452.73 278.847C446.87 278.892 441.062 277.736 435.665 275.451C430.268 273.167 425.396 269.801 421.349 265.562C417.301 261.323 414.165 256.3 412.133 250.803C410.1 245.306 409.215 239.451 409.531 233.599C410.152 221.455 415.389 210.007 424.17 201.596C432.952 193.185 444.615 188.447 456.775 188.35C462.64 188.296 468.454 189.444 473.857 191.725C479.261 194.006 484.139 197.371 488.191 201.611C492.243 205.852 495.383 210.879 497.415 216.38C499.448 221.882 500.331 227.742 500.009 233.599Z" fill="white"/>
<path d="M504.266 197.817C504.151 200.386 503.237 202.856 501.652 204.881C500.479 206.413 498.972 207.656 497.246 208.516C495.52 209.376 493.62 209.83 491.691 209.844C489.822 209.856 487.979 209.409 486.323 208.544C484.667 207.679 483.248 206.421 482.189 204.881C480.788 202.8 480.094 200.323 480.211 197.817C480.382 194.593 481.776 191.555 484.11 189.323C486.443 187.092 489.54 185.834 492.768 185.807C494.326 185.793 495.87 186.098 497.305 186.703C498.741 187.308 500.037 188.201 501.114 189.326C502.191 190.451 503.026 191.785 503.568 193.245C504.111 194.706 504.348 196.261 504.266 197.817Z" fill="#4CAF4F"/>
<path d="M380.195 357.457C380.11 358.881 379.489 360.219 378.457 361.202C377.424 362.185 376.057 362.741 374.632 362.756C373.943 362.764 373.261 362.631 372.626 362.365C371.991 362.099 371.418 361.705 370.941 361.209C370.464 360.712 370.094 360.123 369.854 359.478C369.614 358.833 369.509 358.145 369.545 357.457C369.622 356.031 370.241 354.688 371.275 353.703C372.309 352.719 373.681 352.166 375.109 352.159C375.796 352.153 376.478 352.288 377.112 352.555C377.745 352.822 378.318 353.216 378.794 353.712C379.27 354.208 379.64 354.796 379.881 355.44C380.122 356.084 380.229 356.771 380.195 357.457Z" fill="#263238"/>
<path d="M404.003 357.457C403.922 358.882 403.302 360.223 402.269 361.207C401.235 362.191 399.866 362.745 398.439 362.756C397.752 362.762 397.072 362.627 396.439 362.36C395.806 362.092 395.235 361.698 394.76 361.202C394.285 360.706 393.917 360.117 393.678 359.473C393.439 358.829 393.334 358.143 393.371 357.457C393.447 356.034 394.063 354.694 395.094 353.709C396.124 352.725 397.491 352.17 398.916 352.159C399.605 352.151 400.287 352.284 400.922 352.55C401.557 352.816 402.131 353.21 402.607 353.706C403.084 354.203 403.454 354.792 403.694 355.437C403.934 356.082 404.039 356.77 404.003 357.457Z" fill="#263238"/>
<path d="M427.828 357.457C427.747 358.882 427.127 360.223 426.094 361.207C425.06 362.191 423.691 362.745 422.264 362.756C421.577 362.761 420.895 362.627 420.262 362.36C419.628 362.093 419.055 361.699 418.579 361.203C418.103 360.707 417.733 360.119 417.492 359.475C417.251 358.831 417.144 358.144 417.178 357.457C417.259 356.033 417.879 354.692 418.912 353.708C419.945 352.724 421.314 352.17 422.741 352.159C423.43 352.151 424.112 352.284 424.747 352.55C425.382 352.816 425.956 353.21 426.432 353.706C426.909 354.203 427.279 354.792 427.519 355.437C427.759 356.082 427.864 356.77 427.828 357.457Z" fill="#263238"/>
<path d="M376.186 447.071C376.101 448.494 375.48 449.832 374.448 450.816C373.415 451.799 372.048 452.354 370.623 452.369C369.935 452.375 369.254 452.24 368.62 451.973C367.986 451.706 367.414 451.313 366.938 450.817C366.461 450.32 366.091 449.732 365.85 449.088C365.61 448.444 365.503 447.758 365.536 447.071C365.617 445.646 366.237 444.306 367.27 443.322C368.304 442.338 369.673 441.784 371.1 441.773C371.787 441.767 372.469 441.902 373.102 442.169C373.736 442.436 374.309 442.829 374.785 443.326C375.261 443.822 375.631 444.41 375.872 445.054C376.113 445.698 376.22 446.384 376.186 447.071Z" fill="#263238"/>
<path d="M399.993 447.071C399.913 448.493 399.295 449.831 398.266 450.814C397.236 451.798 395.872 452.354 394.448 452.369C393.759 452.378 393.077 452.245 392.442 451.978C391.807 451.712 391.233 451.319 390.757 450.822C390.28 450.326 389.91 449.736 389.67 449.091C389.43 448.446 389.325 447.758 389.361 447.071C389.442 445.646 390.062 444.306 391.095 443.322C392.129 442.338 393.498 441.784 394.925 441.773C395.612 441.767 396.292 441.902 396.925 442.169C397.558 442.436 398.129 442.83 398.604 443.326C399.079 443.823 399.447 444.411 399.686 445.055C399.925 445.699 400.03 446.385 399.993 447.071Z" fill="#263238"/>
<path d="M423.872 447.071C423.791 448.496 423.171 449.836 422.138 450.82C421.104 451.804 419.735 452.358 418.308 452.369C417.621 452.372 416.941 452.236 416.309 451.968C415.676 451.7 415.105 451.306 414.629 450.811C414.153 450.315 413.783 449.728 413.541 449.085C413.299 448.443 413.191 447.757 413.222 447.071C413.307 445.648 413.928 444.31 414.96 443.326C415.993 442.343 417.359 441.788 418.785 441.773C419.473 441.764 420.156 441.897 420.791 442.164C421.426 442.43 421.999 442.823 422.476 443.32C422.953 443.816 423.323 444.406 423.563 445.051C423.803 445.696 423.908 446.384 423.872 447.071Z" fill="#263238"/>
<path d="M447.644 447.071C447.559 448.494 446.938 449.832 445.905 450.816C444.873 451.799 443.506 452.354 442.08 452.369C441.393 452.373 440.713 452.236 440.081 451.968C439.448 451.7 438.877 451.307 438.401 450.811C437.925 450.315 437.555 449.728 437.313 449.085C437.071 448.443 436.963 447.757 436.994 447.071C437.079 445.648 437.7 444.31 438.732 443.327C439.765 442.343 441.132 441.788 442.557 441.773C443.245 441.767 443.926 441.902 444.56 442.169C445.194 442.436 445.766 442.829 446.242 443.326C446.719 443.822 447.089 444.41 447.33 445.054C447.57 445.698 447.677 446.384 447.644 447.071Z" fill="#263238"/>
<path d="M471.557 447.071C471.472 448.494 470.851 449.832 469.819 450.816C468.786 451.799 467.419 452.354 465.994 452.369C465.305 452.378 464.623 452.245 463.988 451.978C463.353 451.712 462.779 451.319 462.303 450.822C461.826 450.326 461.456 449.736 461.216 449.091C460.976 448.446 460.871 447.758 460.907 447.071C460.988 445.646 461.608 444.306 462.641 443.322C463.675 442.338 465.044 441.784 466.471 441.773C467.158 441.767 467.84 441.902 468.473 442.169C469.107 442.436 469.68 442.829 470.156 443.326C470.632 443.822 471.002 444.41 471.243 445.054C471.484 445.698 471.591 446.384 471.557 447.071Z" fill="#263238"/>
<path d="M467.943 231.242C475.335 224.013 475.727 212.426 468.819 205.362C461.91 198.297 450.317 198.431 442.925 205.659C435.533 212.888 435.141 224.475 442.049 231.54C448.957 238.604 460.55 238.471 467.943 231.242Z" fill="#4CAF4F"/>
<path d="M490.172 260.179C485.772 265.944 480.109 270.624 473.619 273.86C467.128 277.096 459.982 278.802 452.73 278.847C445.698 278.907 438.758 277.235 432.524 273.979C426.29 270.724 420.953 265.984 416.984 260.179C425.567 251.631 439.149 246.05 454.196 246.05C469.244 246.05 482.348 251.631 490.172 260.179Z" fill="#4CAF4F"/>
<path opacity="0.1" d="M467.943 231.242C475.335 224.013 475.727 212.426 468.819 205.362C461.91 198.297 450.317 198.431 442.925 205.659C435.533 212.888 435.141 224.475 442.049 231.54C448.957 238.604 460.55 238.471 467.943 231.242Z" fill="white"/>
<path opacity="0.1" d="M490.172 260.179C485.772 265.944 480.109 270.624 473.619 273.86C467.128 277.096 459.982 278.802 452.73 278.847C445.698 278.907 438.758 277.235 432.524 273.979C426.29 270.724 420.953 265.984 416.984 260.179C425.567 251.631 439.149 246.05 454.196 246.05C469.244 246.05 482.348 251.631 490.172 260.179Z" fill="white"/>
<path d="M230.321 382.06C228.643 385.733 226.877 389.778 225.341 393.698C223.804 397.619 222.232 401.664 220.872 405.69C218.096 413.626 215.981 421.778 214.55 430.063L214.161 432.659C214.124 433.105 214.166 433.553 214.285 433.984C214.702 435.448 215.358 436.832 216.227 438.081C218.496 441.315 221.127 444.278 224.069 446.912C227.171 449.798 230.426 452.515 233.818 455.054C237.209 457.668 240.777 460.211 244.291 462.613L240.989 468.812C232.596 465.155 224.631 460.589 217.234 455.195C213.288 452.317 209.727 448.946 206.637 445.164C204.806 442.912 203.378 440.36 202.416 437.622C201.857 435.911 201.571 434.123 201.569 432.324C201.569 431.9 201.569 431.282 201.569 430.981V430.116L201.745 428.35C202.758 419.148 204.693 410.072 207.52 401.257C208.898 396.913 210.364 392.586 212.042 388.365C213.72 384.144 215.45 380.011 217.587 375.719L230.321 382.06Z" fill="#E58A7B"/>
<path d="M241.801 461.518L254.288 455.195L251.056 468.9C251.056 468.9 242.49 471.302 238.516 467.134L241.801 461.518Z" fill="#E58A7B"/>
<path d="M265.714 457.438L262.394 468.777L251.056 468.9L254.288 455.195L265.714 457.438Z" fill="#E58A7B"/>
<path d="M283.34 315.936C284.008 318.383 284.938 320.752 286.113 323C285.77 323.39 285.328 323.679 284.833 323.838C284.339 323.996 283.811 324.018 283.305 323.901L283.34 315.936Z" fill="#DF5753"/>
<path d="M282.97 316.042C283.701 316.042 284.294 315.132 284.294 314.011C284.294 312.889 283.701 311.979 282.97 311.979C282.238 311.979 281.645 312.889 281.645 314.011C281.645 315.132 282.238 316.042 282.97 316.042Z" fill="#263238"/>
<path d="M282.581 312.05L285.266 311.291C285.266 311.291 283.959 313.375 282.581 312.05Z" fill="#263238"/>
<path d="M248.848 328.899C250.455 337.112 252.062 352.177 246.305 357.669C246.305 357.669 248.565 366.006 263.842 366.006C280.638 366.006 271.861 357.669 271.861 357.669C262.694 355.479 262.924 348.68 264.531 342.286L248.848 328.899Z" fill="#E58A7B"/>
<path d="M244.38 310.178C245.227 323.901 245.298 329.729 252.221 336.776C262.659 347.373 279.331 343.346 282.599 329.712C285.548 317.349 283.676 297.003 270.236 291.546C267.286 290.33 264.074 289.888 260.905 290.259C257.736 290.631 254.714 291.806 252.126 293.671C249.537 295.536 247.467 298.031 246.112 300.92C244.756 303.808 244.16 306.995 244.38 310.178Z" fill="#E58A7B"/>
<path d="M245.74 294.742C238.852 297.25 229.668 295.378 233.271 316.625C237.085 339.125 231.222 346.525 231.222 346.525C231.222 346.525 257.343 352.088 284.012 346.19C284.012 346.19 275.87 331.955 278.148 321.464C281.062 308.218 278.766 303.326 278.766 303.326C278.766 303.326 255.418 291.21 245.74 294.742Z" fill="#263238"/>
<path d="M274.881 317.331C274.888 319.94 275.635 322.494 277.035 324.696C278.908 327.557 281.115 326.462 281.663 323.424C282.157 320.757 281.786 316.042 279.402 314.205C277.018 312.368 274.916 314.17 274.881 317.331Z" fill="#E58A7B"/>
<path d="M239.752 297.056C237.774 291.492 247.205 282.927 267.163 286.459C287.12 289.991 287.985 306.611 287.985 306.611L283.959 301.807L284.135 306.858L263.63 310.796L239.752 297.056Z" fill="#263238"/>
<path d="M241.448 358.606C241.33 357.799 241.532 356.979 242.01 356.319C242.489 355.659 243.206 355.212 244.009 355.073C250.226 354.049 264.355 351.965 271.454 352.954C276.753 353.696 278.13 356.769 278.36 359.294C278.396 359.737 278.337 360.181 278.187 360.599C278.036 361.016 277.798 361.397 277.489 361.715C277.179 362.033 276.805 362.28 276.392 362.442C275.979 362.603 275.536 362.674 275.093 362.65L244.397 361.272C243.674 361.236 242.985 360.95 242.447 360.464C241.91 359.979 241.557 359.322 241.448 358.606Z" fill="#4CAF4F"/>
<path opacity="0.6" d="M241.448 358.606C241.33 357.799 241.532 356.979 242.01 356.319C242.489 355.659 243.206 355.212 244.009 355.073C250.226 354.049 264.355 351.965 271.454 352.954C276.753 353.696 278.13 356.769 278.36 359.294C278.396 359.737 278.337 360.181 278.187 360.599C278.036 361.016 277.798 361.397 277.489 361.715C277.179 362.033 276.805 362.28 276.392 362.442C275.979 362.603 275.536 362.674 275.093 362.65L244.397 361.272C243.674 361.236 242.985 360.95 242.447 360.464C241.91 359.979 241.557 359.322 241.448 358.606Z" fill="black"/>
<path d="M259.197 667.149L270.589 675.061L289.646 649.222L278.254 641.328L259.197 667.149Z" fill="#E58A7B"/>
<path d="M232.635 666.637L244.662 673.489L261.529 646.167L249.501 639.314L232.635 666.637Z" fill="#E58A7B"/>
<path d="M289.628 649.222L279.808 662.539L268.417 654.645L278.236 641.328L289.628 649.222Z" fill="#CF6F64"/>
<path d="M249.484 639.314L261.529 646.185L252.839 660.261L240.794 653.391L249.484 639.314Z" fill="#CF6F64"/>
<path d="M268.805 444.863C268.805 444.863 313.276 500.903 304.923 554.505C298.194 597.793 259.162 656.411 259.162 656.411L240.812 647.297C253.746 621.38 264.784 594.558 273.839 567.044C276.631 558.502 277.446 549.437 276.222 540.534C274.998 531.631 271.768 523.122 266.774 515.65C244.238 482.747 208.139 502.333 232.423 444.863H268.805Z" fill="#4CAF4F"/>
<path opacity="0.6" d="M268.805 444.863C268.805 444.863 313.276 500.903 304.923 554.505C298.194 597.793 259.162 656.411 259.162 656.411L240.812 647.297C253.746 621.38 264.784 594.558 273.839 567.044C276.631 558.502 277.446 549.437 276.222 540.534C274.998 531.631 271.768 523.122 266.774 515.65C244.238 482.747 208.139 502.333 232.423 444.863H268.805Z" fill="black"/>
<path opacity="0.4" d="M290.617 480.857L284.153 474.428C284.153 474.941 296.675 552.244 300.189 573.968C302.263 567.622 303.852 561.127 304.94 554.54C309.073 528.243 300.437 501.38 290.617 480.857Z" fill="black"/>
<path d="M288.657 444.863C288.657 444.863 342.206 515.297 343.725 557.525C344.978 592.847 285.442 661.285 285.442 661.285L268.134 650.088C268.134 650.088 302.98 601.484 311.758 561.781C308.367 522.432 236.662 444.863 236.662 444.863H288.657Z" fill="#4CAF4F"/>
<path opacity="0.6" d="M288.657 444.863C288.657 444.863 342.206 515.297 343.725 557.525C344.978 592.847 285.442 661.285 285.442 661.285L268.134 650.088C268.134 650.088 302.98 601.484 311.758 561.781C308.367 522.432 236.662 444.863 236.662 444.863H288.657Z" fill="black"/>
<path d="M222.409 360.813C216.687 362.173 211.194 382.978 211.194 382.978L233.571 397.919C233.571 397.919 241.024 381.459 238.41 374.253C235.708 366.747 229.597 359.1 222.409 360.813Z" fill="#4CAF4F"/>
<path opacity="0.2" d="M226.789 374.218L225.235 392.356L233.553 397.937C235.85 392.766 237.551 387.35 238.622 381.795L226.789 374.218Z" fill="black"/>
<path d="M295.28 361.219C295.28 361.219 301.885 363.533 288.657 444.846H232.388C233.341 421.886 233.359 407.757 222.409 360.813C230.288 359.189 238.274 358.139 246.305 357.669C254.812 357.059 263.353 357.059 271.861 357.669C282.846 358.676 295.28 361.219 295.28 361.219Z" fill="#4CAF4F"/>
<path d="M301.002 374.218C302.273 377.75 303.616 381.547 305.029 385.203C306.441 388.859 307.784 392.621 309.214 396.33L313.541 407.421L314.636 410.194L315.201 411.572L315.466 412.26C315.466 412.384 315.466 412.384 315.466 412.366C315.144 411.912 314.721 411.537 314.23 411.271C313.531 410.86 312.744 410.624 311.934 410.583C311.261 410.562 310.592 410.688 309.974 410.954C309.161 411.324 309.161 411.483 309.179 411.466C309.326 411.348 309.456 411.211 309.568 411.06C310.545 409.776 311.391 408.397 312.093 406.944C312.923 405.32 313.718 403.589 314.513 401.84C316.067 398.308 317.497 394.652 318.928 390.961C320.359 387.27 321.718 383.543 323.043 379.781L327.07 368.513L333.869 370.28C332.527 378.333 330.796 386.175 328.712 394.158C327.706 398.131 326.522 402.07 325.18 406.044C324.509 408.039 323.767 410.018 322.919 412.049C322.036 414.253 320.948 416.37 319.67 418.371C319.2 419.045 318.68 419.683 318.116 420.279C317.214 421.253 316.119 422.029 314.901 422.557C313.821 423.021 312.65 423.238 311.475 423.193C310.159 423.144 308.876 422.761 307.748 422.08C306.418 421.25 305.314 420.103 304.534 418.742C304.269 418.283 304.04 417.824 303.881 417.488L303.545 416.817L302.874 415.44L301.532 412.702C299.765 409.028 297.999 405.32 296.463 401.593C294.926 397.867 293.301 394.087 291.783 390.29C290.264 386.493 288.904 382.695 287.615 378.598L301.002 374.218Z" fill="#E58A7B"/>
<path d="M295.28 361.219C302.044 362.827 309.656 382.819 309.656 382.819L289.54 399.933C289.54 399.933 276.523 378.139 279.155 370.951C281.892 363.462 286.449 359.118 295.28 361.219Z" fill="#4CAF4F"/>
<path d="M330.267 362.191L337.331 356.292L342.241 363.939L338.62 370.315C338.62 370.315 332.863 375.613 327.776 372.911C326.969 371.096 326.775 369.068 327.225 367.133C327.674 365.199 328.742 363.464 330.267 362.191Z" fill="#E58A7B"/>
<path d="M350.083 356.309L349.553 358.234L338.373 360.107L337.278 356.292L350.083 356.309Z" fill="#E58A7B"/>
<path d="M286.82 662.186L266.651 649.152L270.271 642.864L292.931 656.799L286.82 662.186Z" fill="#4CAF4F"/>
<path d="M252.557 672.571C250.787 672.354 249.087 671.752 247.576 670.805C247.514 670.783 247.46 670.742 247.422 670.689C247.383 670.635 247.363 670.57 247.363 670.504C247.363 670.438 247.383 670.374 247.422 670.32C247.46 670.266 247.514 670.226 247.576 670.204C248.124 670.027 252.875 668.562 254.252 669.692C254.407 669.821 254.525 669.988 254.593 670.178C254.661 670.367 254.678 670.571 254.641 670.769C254.616 671.087 254.511 671.394 254.335 671.659C254.159 671.925 253.917 672.142 253.634 672.288C253.303 672.469 252.934 672.566 252.557 672.571ZM248.583 670.628C250.791 671.758 252.557 672.164 253.405 671.741C253.589 671.638 253.745 671.491 253.856 671.311C253.967 671.132 254.031 670.927 254.04 670.716C254.04 670.434 254.04 670.31 253.881 670.239C253.14 669.639 250.49 670.098 248.548 670.628H248.583Z" fill="#263238"/>
<path d="M247.7 670.928C247.607 670.927 247.518 670.889 247.453 670.822C247.426 670.773 247.413 670.719 247.413 670.663C247.413 670.608 247.426 670.553 247.453 670.504C247.453 670.345 248.601 666.513 250.402 665.648C250.632 665.543 250.882 665.488 251.135 665.488C251.388 665.488 251.638 665.543 251.868 665.648C252.116 665.726 252.331 665.885 252.478 666.099C252.625 666.314 252.696 666.571 252.68 666.831C252.557 668.42 249.325 670.61 247.841 670.981L247.7 670.928ZM251.126 666.107C250.954 666.112 250.786 666.154 250.632 666.23C249.537 666.76 248.636 668.827 248.194 670.081C249.749 669.427 251.886 667.696 251.956 666.725C251.956 666.566 251.956 666.372 251.55 666.195C251.418 666.124 251.275 666.076 251.126 666.054V666.107Z" fill="#263238"/>
<path d="M277.76 680.2C275.764 680.2 272.991 677.639 271.472 676.068C271.433 676.013 271.412 675.949 271.412 675.882C271.412 675.816 271.433 675.751 271.472 675.697C271.507 675.64 271.557 675.593 271.616 675.562C271.675 675.531 271.741 675.517 271.808 675.52C272.514 675.52 278.643 676.438 279.508 678.169C279.6 678.324 279.648 678.501 279.648 678.681C279.648 678.862 279.6 679.038 279.508 679.194C279.378 679.463 279.182 679.695 278.938 679.868C278.694 680.041 278.41 680.149 278.113 680.183L277.76 680.2ZM272.638 676.315C274.863 678.469 276.823 679.67 277.936 679.529C278.131 679.504 278.317 679.431 278.477 679.317C278.637 679.203 278.767 679.051 278.855 678.876C278.894 678.815 278.915 678.745 278.915 678.673C278.915 678.6 278.894 678.53 278.855 678.469C278.395 677.516 275.128 676.703 272.638 676.315Z" fill="#263238"/>
<path d="M272.832 676.227C272.436 676.238 272.039 676.208 271.649 676.138C271.594 676.13 271.543 676.108 271.499 676.074C271.456 676.04 271.422 675.995 271.401 675.944C271.375 675.892 271.361 675.834 271.361 675.776C271.361 675.718 271.375 675.66 271.401 675.608C271.507 675.485 273.892 672.606 276.152 672.412C276.792 672.362 277.426 672.565 277.918 672.977C278.607 673.577 278.572 674.107 278.395 674.443C277.954 675.644 274.898 676.227 272.832 676.227ZM272.373 675.573C274.351 675.679 277.512 675.026 277.918 674.16C277.918 674.16 278.06 673.878 277.601 673.489C277.418 673.33 277.204 673.211 276.973 673.138C276.743 673.065 276.499 673.04 276.258 673.065C274.735 673.49 273.379 674.372 272.373 675.591V675.573Z" fill="#263238"/>
<path d="M248.177 669.021L233.2 664.782C232.942 664.704 232.664 664.724 232.419 664.838C232.175 664.952 231.981 665.152 231.875 665.4L226.824 676.757C226.706 677.047 226.65 677.36 226.661 677.674C226.672 677.988 226.749 678.296 226.887 678.578C227.026 678.86 227.222 679.109 227.464 679.31C227.706 679.51 227.987 679.657 228.29 679.741C233.589 681.119 236.132 681.507 242.719 683.397C246.782 684.527 252.574 686.629 258.173 688.219C263.772 689.808 265.644 684.351 263.471 683.185C253.652 677.993 252.875 674.355 250.19 670.469C249.709 669.765 248.997 669.253 248.177 669.021Z" fill="#4CAF4F"/>
<path d="M271.878 674.001L259.091 665.171C258.875 665.013 258.607 664.94 258.341 664.966C258.074 664.992 257.825 665.115 257.643 665.312L249.166 674.425C248.959 674.661 248.805 674.937 248.714 675.237C248.622 675.537 248.596 675.853 248.636 676.163C248.676 676.474 248.782 676.773 248.946 677.039C249.111 677.306 249.33 677.535 249.59 677.71C254.093 680.73 256.425 681.949 262.059 685.852C265.591 688.254 272.426 693.588 277.194 696.908C281.963 700.228 285.513 695.672 283.817 693.87C276.223 685.764 274.563 680.677 273.309 676.068C273.091 675.231 272.584 674.499 271.878 674.001Z" fill="#4CAF4F"/>
<path d="M261.511 657.576L238.463 646.114L240.847 639.862L265.467 651.942L261.511 657.576Z" fill="#4CAF4F"/>
<path d="M231.54 441.543L229.597 446.63C229.403 447.018 229.862 447.424 230.515 447.424H288.939C289.451 447.424 289.875 447.177 289.91 446.859L290.405 441.808C290.405 441.472 289.999 441.172 289.451 441.172H232.458C232.287 441.156 232.114 441.181 231.954 441.246C231.794 441.31 231.652 441.412 231.54 441.543Z" fill="#4CAF4F"/>
<path opacity="0.4" d="M231.54 441.543L229.597 446.63C229.403 447.018 229.862 447.424 230.515 447.424H288.939C289.451 447.424 289.875 447.177 289.91 446.859L290.405 441.808C290.405 441.472 289.999 441.172 289.451 441.172H232.458C232.287 441.156 232.114 441.181 231.954 441.246C231.794 441.31 231.652 441.412 231.54 441.543Z" fill="white"/>
<path d="M240.741 447.919H239.205C238.905 447.919 238.675 447.76 238.693 447.566L239.417 441.013C239.417 440.837 239.699 440.678 240 440.678H241.536C241.836 440.678 242.066 440.837 242.048 441.013L241.324 447.566C241.307 447.76 241.042 447.919 240.741 447.919Z" fill="#4CAF4F"/>
<path d="M276.77 447.919H275.252C274.951 447.919 274.722 447.76 274.739 447.566L275.446 441.013C275.446 440.837 275.746 440.678 276.046 440.678H277.565C277.865 440.678 278.113 440.837 278.077 441.013L277.371 447.566C277.283 447.76 277.088 447.919 276.77 447.919Z" fill="#4CAF4F"/>
<g style="mix-blend-mode:multiply">
<path d="M239.399 747.013C265.53 747.013 286.714 745.479 286.714 743.587C286.714 741.695 265.53 740.161 239.399 740.161C213.268 740.161 192.084 741.695 192.084 743.587C192.084 745.479 213.268 747.013 239.399 747.013Z" fill="#F5F5F5"/>
</g>
<path d="M268.222 738.748C259.851 736.31 250.561 733.184 244.945 729.917C244.786 729.811 244.609 729.758 244.45 729.67V691.768H261.387C262.673 691.692 263.881 691.128 264.765 690.191C265.648 689.253 266.14 688.014 266.14 686.726C266.14 685.438 265.648 684.199 264.765 683.262C263.881 682.324 262.673 681.76 261.387 681.684H244.539V508.921H234.366V681.684H217.534C216.847 681.643 216.159 681.743 215.512 681.978C214.865 682.213 214.272 682.578 213.771 683.05C213.27 683.523 212.871 684.092 212.598 684.724C212.325 685.357 212.185 686.038 212.185 686.726C212.185 687.415 212.325 688.096 212.598 688.728C212.871 689.36 213.27 689.93 213.771 690.402C214.272 690.874 214.865 691.239 215.512 691.474C216.159 691.709 216.847 691.809 217.534 691.768H234.366V729.617C234.207 729.617 234.048 729.758 233.889 729.864C228.184 733.184 218.965 736.31 210.594 738.695C210.028 738.866 209.542 739.233 209.225 739.732C208.907 740.23 208.778 740.825 208.861 741.41C208.945 741.995 209.234 742.53 209.679 742.92C210.123 743.31 210.692 743.527 211.282 743.534H267.534C268.098 743.495 268.632 743.264 269.047 742.88C269.462 742.495 269.732 741.979 269.813 741.419C269.893 740.859 269.78 740.288 269.49 739.802C269.201 739.316 268.753 738.944 268.222 738.748Z" fill="#E0E0E0"/>
<path d="M270.819 491.33H208.015C202.962 491.33 198.866 495.426 198.866 500.479V519.147C198.866 524.2 202.962 528.295 208.015 528.295H270.819C275.871 528.295 279.967 524.2 279.967 519.147V500.479C279.967 495.426 275.871 491.33 270.819 491.33Z" fill="#4CAF4F"/>
<path d="M207.432 528.313V531.527C207.432 534.177 210.311 536.331 213.843 536.331H265.061C268.593 536.331 271.472 534.177 271.472 531.527V528.313H207.432Z" fill="#4CAF4F"/>
<path opacity="0.3" d="M207.432 528.313V531.527C207.432 534.177 210.311 536.331 213.843 536.331H265.061C268.593 536.331 271.472 534.177 271.472 531.527V528.313H207.432Z" fill="white"/>
</svg>
